<svg width="48" height="48" viewBox="0 0 48 48" fill="none" xmlns="http://www.w3.org/2000/svg">
<path d="M9.16085 35.1623C9.10809 35.2838 8.92085 35.3197 8.75027 35.2366C8.57652 35.1571 8.47893 34.9921 8.53526 34.8706C8.58683 34.746 8.77447 34.7117 8.94782 34.7944C9.12197 34.8743 9.22115 35.0409 9.16085 35.1623Z" fill="white"/>
<path d="M10.131 36.263C10.0168 36.3707 9.79346 36.3207 9.64192 36.1504C9.48523 35.9806 9.45587 35.7534 9.57171 35.6441C9.68953 35.5363 9.90612 35.5868 10.0632 35.7566C10.2199 35.9285 10.2505 36.1541 10.131 36.263Z" fill="white"/>
<path d="M11.0757 37.6663C10.929 37.77 10.689 37.6728 10.5406 37.4561C10.3938 37.2394 10.3938 36.9796 10.5438 36.8755C10.6925 36.7714 10.929 36.865 11.0793 37.0801C11.2257 37.3 11.2257 37.5602 11.0757 37.6663Z" fill="white"/>
<path d="M12.3698 39.0219C12.2385 39.1692 11.9588 39.1297 11.7541 38.9287C11.5446 38.7322 11.4863 38.4534 11.618 38.3062C11.7509 38.1585 12.0322 38.2001 12.2385 38.3994C12.4463 38.5955 12.5098 38.8763 12.3698 39.0219Z" fill="white"/>
<path d="M14.1549 39.8091C14.097 40 13.8276 40.0867 13.5563 40.0056C13.2853 39.9221 13.108 39.6986 13.1628 39.5057C13.2191 39.3137 13.4896 39.2233 13.763 39.31C14.0335 39.3932 14.2112 39.6151 14.1549 39.8091Z" fill="white"/>
<path d="M16.1154 39.9552C16.1221 40.1561 15.892 40.3228 15.6072 40.326C15.3208 40.3329 15.0891 40.1703 15.0859 39.9726C15.0859 39.7696 15.3109 39.6046 15.5973 39.5998C15.8821 39.5941 16.1154 39.7555 16.1154 39.9552Z" fill="white"/>
<path d="M17.9396 39.6393C17.9737 39.8354 17.7757 40.0367 17.4929 40.09C17.2148 40.142 16.9574 40.021 16.9221 39.8265C16.8876 39.6256 17.0891 39.4243 17.3668 39.3722C17.65 39.3222 17.9035 39.44 17.9396 39.6393Z" fill="white"/>
</svg>
