<svg width="111" height="154" viewBox="0 0 111 154" fill="none" xmlns="http://www.w3.org/2000/svg">
<path d="M38.35 107.66V110H16.66V107.66L21.61 107.12C22.57 107 23.14 106.76 23.32 106.4C23.5 106.04 23.59 104.81 23.59 102.71V83.9L9.1 55.55C8.5 54.35 8.02 53.51 7.66 53.03C7.36 52.49 7.03 52.16 6.67 52.04C6.37 51.86 5.89 51.74 5.23 51.68L0.64 51.23V48.8H22.42V51.23L17.83 51.68C16.93 51.8 16.45 52.04 16.39 52.4C16.39 52.76 16.81 53.81 17.65 55.55L29.89 80.12L42.4 55.55C43.3 53.81 43.72 52.76 43.66 52.4C43.6 52.04 43.12 51.8 42.22 51.68L37.63 51.23V48.8H54.28V51.23L49.6 51.68C49 51.74 48.52 51.86 48.16 52.04C47.86 52.16 47.53 52.49 47.17 53.03C46.87 53.51 46.42 54.35 45.82 55.55L31.42 83.72V102.71C31.42 104.81 31.51 106.04 31.69 106.4C31.87 106.76 32.44 107 33.4 107.12L38.35 107.66ZM58.2302 51.23V48.8H83.2502C89.1302 48.8 93.6302 50.21 96.7502 53.03C99.9302 55.79 101.52 59.48 101.52 64.1V66.89C101.52 70.55 100.5 73.67 98.4602 76.25C96.4802 78.77 93.6302 80.51 89.9102 81.47L101.43 102.71C102.21 104.15 102.78 105.17 103.14 105.77C103.5 106.31 103.83 106.67 104.13 106.85C104.49 106.97 104.97 107.06 105.57 107.12L109.62 107.66V110H96.0302L81.8102 82.28H72.9902V102.71C72.9902 104.81 73.0802 106.04 73.2602 106.4C73.4402 106.76 74.0102 107 74.9702 107.12L79.9202 107.66V110H58.2302V107.66L63.1802 107.12C64.1402 107 64.7102 106.76 64.8902 106.4C65.0702 106.04 65.1602 104.81 65.1602 102.71V56.09C65.1602 53.99 65.0702 52.76 64.8902 52.4C64.7102 52.04 64.1402 51.8 63.1802 51.68L58.2302 51.23ZM83.2502 51.68H72.9902V79.4H83.2502C86.3702 79.4 88.8002 78.41 90.5402 76.43C92.3402 74.39 93.2402 71.33 93.2402 67.25V63.74C93.2402 59.66 92.3402 56.63 90.5402 54.65C88.8002 52.67 86.3702 51.68 83.2502 51.68Z" fill="black"/>
<path d="M38.35 107.66H38.45V107.57L38.3608 107.561L38.35 107.66ZM38.35 110V110.1H38.45V110H38.35ZM16.66 110H16.56V110.1H16.66V110ZM16.66 107.66L16.6492 107.561L16.56 107.57V107.66H16.66ZM21.61 107.12L21.6208 107.219L21.6224 107.219L21.61 107.12ZM23.59 83.9H23.69V83.8759L23.679 83.8545L23.59 83.9ZM9.1 55.55L9.01055 55.5947L9.01096 55.5955L9.1 55.55ZM7.66 53.03L7.57176 53.079L7.58 53.09L7.66 53.03ZM6.67 52.04L6.61855 52.1257L6.62796 52.1314L6.63838 52.1349L6.67 52.04ZM5.23 51.68L5.22024 51.7795L5.22095 51.7796L5.23 51.68ZM0.64 51.23H0.54V51.3207L0.630243 51.3295L0.64 51.23ZM0.64 48.8V48.7H0.54V48.8H0.64ZM22.42 48.8H22.52V48.7H22.42V48.8ZM22.42 51.23L22.4298 51.3295L22.52 51.3207V51.23H22.42ZM17.83 51.68L17.8202 51.5804L17.8168 51.5809L17.83 51.68ZM16.39 52.4L16.2914 52.3836L16.29 52.3917V52.4H16.39ZM17.65 55.55L17.5599 55.5935L17.5605 55.5946L17.65 55.55ZM29.89 80.12L29.8005 80.1646L29.889 80.3423L29.9791 80.1654L29.89 80.12ZM42.4 55.55L42.3112 55.5041L42.3109 55.5046L42.4 55.55ZM43.66 52.4L43.7586 52.3836L43.7586 52.3836L43.66 52.4ZM42.22 51.68L42.2332 51.5808L42.2298 51.5805L42.22 51.68ZM37.63 51.23H37.53V51.3207L37.6202 51.3295L37.63 51.23ZM37.63 48.8V48.7H37.53V48.8H37.63ZM54.28 48.8H54.38V48.7H54.28V48.8ZM54.28 51.23L54.2896 51.3295L54.38 51.3208V51.23H54.28ZM49.6 51.68L49.5904 51.5805L49.5901 51.5805L49.6 51.68ZM48.16 52.04L48.1973 52.1332L48.2047 52.1294L48.16 52.04ZM47.17 53.03L47.0868 52.9745L47.0852 52.977L47.17 53.03ZM45.82 55.55L45.909 55.5955L45.9094 55.5947L45.82 55.55ZM31.42 83.72L31.331 83.6745L31.32 83.6959V83.72H31.42ZM33.4 107.12L33.3876 107.219L33.3892 107.219L33.4 107.12ZM38.25 107.66V110H38.45V107.66H38.25ZM38.35 109.9H16.66V110.1H38.35V109.9ZM16.76 110V107.66H16.56V110H16.76ZM16.6708 107.759L21.6208 107.219L21.5992 107.021L16.6492 107.561L16.6708 107.759ZM21.6224 107.219C22.107 107.159 22.4995 107.067 22.7963 106.942C23.092 106.818 23.3043 106.655 23.4094 106.445L23.2306 106.355C23.1557 106.505 22.993 106.642 22.7187 106.758C22.4455 106.873 22.073 106.961 21.5976 107.021L21.6224 107.219ZM23.4094 106.445C23.4613 106.341 23.5026 106.184 23.5367 105.984C23.5712 105.781 23.5996 105.524 23.6222 105.215C23.6675 104.596 23.69 103.761 23.69 102.71H23.49C23.49 103.759 23.4675 104.589 23.4228 105.2C23.4004 105.506 23.3726 105.756 23.3395 105.95C23.3061 106.147 23.2687 106.279 23.2306 106.355L23.4094 106.445ZM23.69 102.71V83.9H23.49V102.71H23.69ZM23.679 83.8545L9.18904 55.5045L9.01096 55.5955L23.501 83.9455L23.679 83.8545ZM9.18944 55.5053C8.58921 54.3048 8.10584 53.4578 7.74 52.97L7.58 53.09C7.93416 53.5622 8.41079 54.3952 9.01056 55.5947L9.18944 55.5053ZM7.74742 52.9814C7.44246 52.4325 7.09642 52.0767 6.70162 51.9451L6.63838 52.1349C6.96358 52.2433 7.27754 52.5475 7.57258 53.0786L7.74742 52.9814ZM6.72145 51.9542C6.40155 51.7623 5.90296 51.6408 5.23905 51.5804L5.22095 51.7796C5.87704 51.8392 6.33845 51.9577 6.61855 52.1257L6.72145 51.9542ZM5.23976 51.5805L0.649757 51.1305L0.630243 51.3295L5.22024 51.7795L5.23976 51.5805ZM0.74 51.23V48.8H0.54V51.23H0.74ZM0.64 48.9H22.42V48.7H0.64V48.9ZM22.32 48.8V51.23H22.52V48.8H22.32ZM22.4102 51.1305L17.8202 51.5805L17.8398 51.7795L22.4298 51.3295L22.4102 51.1305ZM17.8168 51.5809C17.3623 51.6415 17.0047 51.7333 16.7503 51.8606C16.4958 51.9878 16.3288 52.1591 16.2914 52.3836L16.4886 52.4164C16.5112 52.2809 16.6142 52.1522 16.8397 52.0394C17.0653 51.9266 17.3977 51.8385 17.8432 51.7791L17.8168 51.5809ZM16.29 52.4C16.29 52.5052 16.3199 52.65 16.3729 52.8279C16.4266 53.0082 16.5066 53.2306 16.6122 53.4946C16.8234 54.0228 17.1395 54.7226 17.5599 55.5935L17.7401 55.5065C17.3205 54.6374 17.0066 53.9422 16.7978 53.4204C16.6934 53.1594 16.6159 52.9431 16.5646 52.7708C16.5126 52.5963 16.49 52.4748 16.49 52.4H16.29ZM17.5605 55.5946L29.8005 80.1646L29.9795 80.0754L17.7395 55.5054L17.5605 55.5946ZM29.9791 80.1654L42.4891 55.5954L42.3109 55.5046L29.8009 80.0746L29.9791 80.1654ZM42.4888 55.5959C42.9394 54.7248 43.2711 54.024 43.4828 53.4946C43.5887 53.23 43.6654 53.0062 43.7119 52.8241C43.7576 52.6451 43.7772 52.4951 43.7586 52.3836L43.5614 52.4164C43.5728 52.4849 43.5624 52.6011 43.5181 52.7746C43.4746 52.945 43.4013 53.16 43.2972 53.4204C43.0889 53.941 42.7606 54.6352 42.3112 55.5041L42.4888 55.5959ZM43.7586 52.3836C43.7212 52.1591 43.5542 51.9878 43.2997 51.8606C43.0453 51.7333 42.6877 51.6415 42.2332 51.5809L42.2068 51.7791C42.6523 51.8385 42.9847 51.9266 43.2103 52.0394C43.4358 52.1522 43.5388 52.2809 43.5614 52.4164L43.7586 52.3836ZM42.2298 51.5805L37.6398 51.1305L37.6202 51.3295L42.2102 51.7795L42.2298 51.5805ZM37.73 51.23V48.8H37.53V51.23H37.73ZM37.63 48.9H54.28V48.7H37.63V48.9ZM54.18 48.8V51.23H54.38V48.8H54.18ZM54.2704 51.1305L49.5904 51.5805L49.6096 51.7795L54.2896 51.3295L54.2704 51.1305ZM49.5901 51.5805C48.9834 51.6412 48.4902 51.7631 48.1153 51.9506L48.2047 52.1294C48.5498 51.9569 49.0166 51.8388 49.61 51.7795L49.5901 51.5805ZM48.1229 51.9471C47.7929 52.0791 47.4487 52.4317 47.0868 52.9745L47.2532 53.0855C47.6113 52.5483 47.9271 52.2409 48.1971 52.1328L48.1229 51.9471ZM47.0852 52.977C46.7824 53.4614 46.3306 54.3052 45.7306 55.5053L45.9094 55.5947C46.5094 54.3948 46.9576 53.5586 47.2548 53.083L47.0852 52.977ZM45.731 55.5045L31.331 83.6745L31.509 83.7655L45.909 55.5955L45.731 55.5045ZM31.32 83.72V102.71H31.52V83.72H31.32ZM31.32 102.71C31.32 103.761 31.3425 104.596 31.3878 105.215C31.4104 105.524 31.4388 105.781 31.4733 105.984C31.5074 106.184 31.5487 106.341 31.6006 106.445L31.7794 106.355C31.7414 106.279 31.7039 106.147 31.6705 105.95C31.6374 105.756 31.6096 105.506 31.5872 105.2C31.5425 104.589 31.52 103.759 31.52 102.71H31.32ZM31.6006 106.445C31.7057 106.655 31.918 106.818 32.2137 106.942C32.5105 107.067 32.903 107.159 33.3876 107.219L33.4124 107.021C32.937 106.961 32.5645 106.873 32.2913 106.758C32.017 106.642 31.8543 106.505 31.7794 106.355L31.6006 106.445ZM33.3892 107.219L38.3392 107.759L38.3608 107.561L33.4108 107.021L33.3892 107.219ZM58.2302 51.23H58.1302V51.3213L58.2211 51.3296L58.2302 51.23ZM58.2302 48.8V48.7H58.1302V48.8H58.2302ZM96.7502 53.03L96.6831 53.1042L96.6846 53.1055L96.7502 53.03ZM98.4602 76.25L98.3817 76.188L98.3815 76.1882L98.4602 76.25ZM89.9102 81.47L89.8852 81.3732L89.7612 81.4052L89.8223 81.5177L89.9102 81.47ZM101.43 102.71L101.518 102.662L101.518 102.662L101.43 102.71ZM103.14 105.77L103.054 105.822L103.057 105.825L103.14 105.77ZM104.13 106.85L104.079 106.936L104.088 106.941L104.099 106.945L104.13 106.85ZM105.57 107.12L105.583 107.021L105.58 107.02L105.57 107.12ZM109.62 107.66H109.72V107.572L109.633 107.561L109.62 107.66ZM109.62 110V110.1H109.72V110H109.62ZM96.0302 110L95.9412 110.046L95.9691 110.1H96.0302V110ZM81.8102 82.28L81.8991 82.2344L81.8712 82.18H81.8102V82.28ZM72.9902 82.28V82.18H72.8902V82.28H72.9902ZM73.2602 106.4L73.1707 106.445L73.1707 106.445L73.2602 106.4ZM74.9702 107.12L74.9578 107.219L74.9593 107.219L74.9702 107.12ZM79.9202 107.66H80.0202V107.57L79.931 107.561L79.9202 107.66ZM79.9202 110V110.1H80.0202V110H79.9202ZM58.2302 110H58.1302V110.1H58.2302V110ZM58.2302 107.66L58.2193 107.561L58.1302 107.57V107.66H58.2302ZM63.1802 107.12L63.191 107.219L63.1926 107.219L63.1802 107.12ZM64.8902 106.4L64.9796 106.445L64.9796 106.445L64.8902 106.4ZM64.8902 52.4L64.9796 52.3553L64.9796 52.3553L64.8902 52.4ZM63.1802 51.68L63.1926 51.5807L63.1892 51.5804L63.1802 51.68ZM72.9902 51.68V51.58H72.8902V51.68H72.9902ZM72.9902 79.4H72.8902V79.5H72.9902V79.4ZM90.5402 76.43L90.4652 76.3638L90.465 76.364L90.5402 76.43ZM90.5402 54.65L90.465 54.716L90.4662 54.7173L90.5402 54.65ZM58.3302 51.23V48.8H58.1302V51.23H58.3302ZM58.2302 48.9H83.2502V48.7H58.2302V48.9ZM83.2502 48.9C89.1152 48.9 93.5877 50.3064 96.6831 53.1042L96.8172 52.9558C93.6726 50.1136 89.1451 48.7 83.2502 48.7V48.9ZM96.6846 53.1055C99.8404 55.8445 101.42 59.5058 101.42 64.1H101.62C101.62 59.4542 100.02 55.7355 96.8157 52.9545L96.6846 53.1055ZM101.42 64.1V66.89H101.62V64.1H101.42ZM101.42 66.89C101.42 70.5302 100.406 73.6276 98.3817 76.188L98.5386 76.312C100.594 73.7124 101.62 70.5698 101.62 66.89H101.42ZM98.3815 76.1882C96.4176 78.6877 93.5883 80.4175 89.8852 81.3732L89.9351 81.5668C93.672 80.6025 96.5427 78.8523 98.5388 76.3118L98.3815 76.1882ZM89.8223 81.5177L101.342 102.758L101.518 102.662L89.9981 81.4223L89.8223 81.5177ZM101.342 102.758C102.122 104.198 102.693 105.219 103.054 105.821L103.226 105.719C102.867 105.121 102.298 104.102 101.518 102.662L101.342 102.758ZM103.057 105.825C103.419 106.369 103.759 106.744 104.079 106.936L104.182 106.764C103.901 106.596 103.581 106.251 103.223 105.715L103.057 105.825ZM104.099 106.945C104.468 107.068 104.957 107.159 105.56 107.22L105.58 107.02C104.984 106.961 104.512 106.872 104.162 106.755L104.099 106.945ZM105.557 107.219L109.607 107.759L109.633 107.561L105.583 107.021L105.557 107.219ZM109.52 107.66V110H109.72V107.66H109.52ZM109.62 109.9H96.0302V110.1H109.62V109.9ZM96.1191 109.954L81.8991 82.2344L81.7212 82.3256L95.9412 110.046L96.1191 109.954ZM81.8102 82.18H72.9902V82.38H81.8102V82.18ZM72.8902 82.28V102.71H73.0902V82.28H72.8902ZM72.8902 102.71C72.8902 103.761 72.9127 104.596 72.9579 105.215C72.9805 105.524 73.009 105.781 73.0434 105.984C73.0775 106.184 73.1188 106.341 73.1707 106.445L73.3496 106.355C73.3115 106.279 73.274 106.147 73.2406 105.95C73.2076 105.756 73.1798 105.506 73.1574 105.2C73.1126 104.589 73.0902 103.759 73.0902 102.71H72.8902ZM73.1707 106.445C73.2758 106.655 73.4882 106.818 73.7839 106.942C74.0806 107.067 74.4732 107.159 74.9578 107.219L74.9826 107.021C74.5071 106.961 74.1347 106.873 73.8615 106.758C73.5872 106.642 73.4245 106.505 73.3496 106.355L73.1707 106.445ZM74.9593 107.219L79.9093 107.759L79.931 107.561L74.981 107.021L74.9593 107.219ZM79.8202 107.66V110H80.0202V107.66H79.8202ZM79.9202 109.9H58.2302V110.1H79.9202V109.9ZM58.3302 110V107.66H58.1302V110H58.3302ZM58.241 107.759L63.191 107.219L63.1693 107.021L58.2193 107.561L58.241 107.759ZM63.1926 107.219C63.6771 107.159 64.0697 107.067 64.3665 106.942C64.6622 106.818 64.8745 106.655 64.9796 106.445L64.8007 106.355C64.7258 106.505 64.5632 106.642 64.2889 106.758C64.0156 106.873 63.6432 106.961 63.1678 107.021L63.1926 107.219ZM64.9796 106.445C65.0315 106.341 65.0728 106.184 65.1069 105.984C65.1414 105.781 65.1698 105.524 65.1924 105.215C65.2376 104.596 65.2602 103.761 65.2602 102.71H65.0602C65.0602 103.759 65.0377 104.589 64.9929 105.2C64.9705 105.506 64.9427 105.756 64.9097 105.95C64.8763 106.147 64.8388 106.279 64.8007 106.355L64.9796 106.445ZM65.2602 102.71V56.09H65.0602V102.71H65.2602ZM65.2602 56.09C65.2602 55.039 65.2376 54.2037 65.1924 53.5852C65.1698 53.276 65.1414 53.0194 65.1069 52.8164C65.0728 52.6156 65.0315 52.4591 64.9796 52.3553L64.8007 52.4447C64.8388 52.5209 64.8763 52.6531 64.9097 52.8499C64.9427 53.0443 64.9705 53.294 64.9929 53.5998C65.0377 54.2113 65.0602 55.041 65.0602 56.09H65.2602ZM64.9796 52.3553C64.8745 52.1451 64.6622 51.9823 64.3665 51.8578C64.0697 51.7329 63.6771 51.6413 63.1926 51.5808L63.1678 51.7792C63.6432 51.8387 64.0156 51.9271 64.2889 52.0422C64.5632 52.1577 64.7258 52.2949 64.8007 52.4447L64.9796 52.3553ZM63.1892 51.5804L58.2392 51.1304L58.2211 51.3296L63.1711 51.7796L63.1892 51.5804ZM83.2502 51.58H72.9902V51.78H83.2502V51.58ZM72.8902 51.68V79.4H73.0902V51.68H72.8902ZM72.9902 79.5H83.2502V79.3H72.9902V79.5ZM83.2502 79.5C86.3931 79.5 88.8528 78.5016 90.6153 76.496L90.465 76.364C88.7475 78.3184 86.3472 79.3 83.2502 79.3V79.5ZM90.6151 76.4962C92.4377 74.4306 93.3402 71.3425 93.3402 67.25H93.1402C93.1402 71.3174 92.2427 74.3494 90.4652 76.3638L90.6151 76.4962ZM93.3402 67.25V63.74H93.1402V67.25H93.3402ZM93.3402 63.74C93.3402 59.6478 92.4378 56.5887 90.6142 54.5827L90.4662 54.7173C92.2425 56.6713 93.1402 59.6722 93.1402 63.74H93.3402ZM90.6153 54.584C88.8528 52.5784 86.3931 51.58 83.2502 51.58V51.78C86.3472 51.78 88.7475 52.7616 90.465 54.716L90.6153 54.584Z" fill="black"/>
<path d="M10.576 134.164V133.84H13.984C14.96 133.84 15.708 134.156 16.228 134.788C16.748 135.42 17.008 136.312 17.008 137.464V138.364C17.008 139.524 16.748 140.42 16.228 141.052C15.708 141.684 14.96 142 13.984 142H10.576V141.688L11.236 141.616C11.364 141.6 11.44 141.568 11.464 141.52C11.488 141.472 11.5 141.308 11.5 141.028V134.812C11.5 134.532 11.488 134.368 11.464 134.32C11.44 134.272 11.364 134.24 11.236 134.224L10.576 134.164ZM13.96 134.224H12.544V141.616H13.96C14.392 141.616 14.748 141.536 15.028 141.376C15.308 141.216 15.516 140.944 15.652 140.56C15.796 140.168 15.868 139.636 15.868 138.964V136.864C15.868 136.2 15.796 135.676 15.652 135.292C15.516 134.908 15.308 134.636 15.028 134.476C14.748 134.308 14.392 134.224 13.96 134.224ZM19.7224 134.716C19.5304 134.716 19.3704 134.656 19.2424 134.536C19.1224 134.408 19.0624 134.244 19.0624 134.044C19.0624 133.852 19.1224 133.696 19.2424 133.576C19.3704 133.456 19.5304 133.396 19.7224 133.396C19.9144 133.396 20.0704 133.456 20.1904 133.576C20.3184 133.696 20.3824 133.852 20.3824 134.044C20.3824 134.244 20.3184 134.408 20.1904 134.536C20.0704 134.656 19.9144 134.716 19.7224 134.716ZM18.3184 136.384V136.06H20.2264V141.028C20.2264 141.308 20.2384 141.472 20.2624 141.52C20.2864 141.568 20.3624 141.6 20.4904 141.616L21.1504 141.688V142H18.3184V141.688L18.9784 141.616C19.1064 141.6 19.1824 141.568 19.2064 141.52C19.2304 141.472 19.2424 141.308 19.2424 141.028V137.032C19.2424 136.752 19.2304 136.588 19.2064 136.54C19.1824 136.492 19.1064 136.46 18.9784 136.444L18.3184 136.384ZM24.4364 139.576L23.7044 139.396C22.7044 139.14 22.2044 138.564 22.2044 137.668C22.2044 137.372 22.2724 137.092 22.4084 136.828C22.5444 136.564 22.7604 136.352 23.0564 136.192C23.3604 136.024 23.7484 135.94 24.2204 135.94C24.7484 135.94 25.1724 136.028 25.4924 136.204C25.8124 136.38 26.0364 136.608 26.1644 136.888C26.2924 137.168 26.3324 137.472 26.2844 137.8L25.3484 137.968C25.4444 137.448 25.3884 137.044 25.1804 136.756C24.9804 136.468 24.6484 136.324 24.1844 136.324C23.8244 136.324 23.5364 136.416 23.3204 136.6C23.1044 136.776 22.9964 137.036 22.9964 137.38C22.9964 137.636 23.0764 137.864 23.2364 138.064C23.3964 138.256 23.6644 138.4 24.0404 138.496L24.7964 138.676C25.3244 138.804 25.7324 139.008 26.0204 139.288C26.3164 139.568 26.4644 139.936 26.4644 140.392C26.4644 140.904 26.2764 141.32 25.9004 141.64C25.5324 141.96 25.0044 142.12 24.3164 142.12C23.9884 142.12 23.6684 142.072 23.3564 141.976C23.0524 141.872 22.7844 141.712 22.5524 141.496C22.3284 141.272 22.1644 140.984 22.0604 140.632L22.7324 140.392C22.8204 140.896 23.0124 141.248 23.3084 141.448C23.6044 141.648 23.9444 141.748 24.3284 141.748C24.5524 141.748 24.7644 141.712 24.9644 141.64C25.1724 141.568 25.3404 141.456 25.4684 141.304C25.5964 141.144 25.6604 140.94 25.6604 140.692C25.6604 140.436 25.5724 140.216 25.3964 140.032C25.2204 139.848 24.9004 139.696 24.4364 139.576ZM30.396 136.324C29.956 136.324 29.612 136.508 29.364 136.876C29.124 137.236 29.004 137.832 29.004 138.664V139.384C29.004 140.224 29.124 140.828 29.364 141.196C29.612 141.556 30.012 141.736 30.564 141.736C30.94 141.736 31.244 141.64 31.476 141.448C31.708 141.256 31.864 140.924 31.944 140.452L32.58 140.632C32.436 141.176 32.172 141.56 31.788 141.784C31.404 142.008 30.976 142.12 30.504 142.12C29.64 142.12 28.992 141.852 28.56 141.316C28.136 140.772 27.924 140.048 27.924 139.144V138.904C27.924 138.008 28.136 137.292 28.56 136.756C28.984 136.212 29.596 135.94 30.396 135.94C30.908 135.94 31.332 136.04 31.668 136.24C32.012 136.44 32.256 136.712 32.4 137.056C32.544 137.392 32.584 137.764 32.52 138.172L31.572 138.316C31.66 137.676 31.6 137.184 31.392 136.84C31.192 136.496 30.86 136.324 30.396 136.324ZM39.1314 138.904V139.144C39.1314 140.048 38.9034 140.772 38.4474 141.316C37.9994 141.852 37.3594 142.12 36.5274 142.12C35.7034 142.12 35.0634 141.852 34.6074 141.316C34.1594 140.772 33.9354 140.048 33.9354 139.144V138.904C33.9354 138.008 34.1594 137.292 34.6074 136.756C35.0554 136.212 35.6954 135.94 36.5274 135.94C37.3594 135.94 37.9994 136.212 38.4474 136.756C38.9034 137.292 39.1314 138.008 39.1314 138.904ZM38.0514 138.664C38.0514 137.832 37.9194 137.236 37.6554 136.876C37.3994 136.508 37.0234 136.324 36.5274 136.324C36.0394 136.324 35.6634 136.508 35.3994 136.876C35.1434 137.236 35.0154 137.832 35.0154 138.664V139.384C35.0154 140.224 35.1434 140.828 35.3994 141.196C35.6634 141.556 36.0394 141.736 36.5274 141.736C37.0234 141.736 37.3994 141.556 37.6554 141.196C37.9194 140.828 38.0514 140.224 38.0514 139.384V138.664ZM44.9527 136.96L43.2007 142H42.4207L40.6567 136.96C40.5767 136.728 40.5167 136.588 40.4767 136.54C40.4367 136.492 40.3527 136.46 40.2247 136.444L39.6127 136.384V136.06H42.3487V136.384L41.7367 136.444C41.6087 136.46 41.5407 136.492 41.5327 136.54C41.5247 136.58 41.5607 136.72 41.6407 136.96L43.0927 141.136L44.5207 136.96C44.6007 136.72 44.6367 136.58 44.6287 136.54C44.6207 136.492 44.5527 136.46 44.4247 136.444L43.8007 136.384V136.06H45.9847V136.384L45.3727 136.444C45.2447 136.46 45.1607 136.492 45.1207 136.54C45.0887 136.58 45.0327 136.72 44.9527 136.96ZM51.2625 140.632C51.1185 141.176 50.8465 141.56 50.4465 141.784C50.0545 142.008 49.6185 142.12 49.1385 142.12C48.2505 142.12 47.5865 141.852 47.1465 141.316C46.7065 140.772 46.4865 140.048 46.4865 139.144V138.904C46.4865 138.008 46.6985 137.292 47.1225 136.756C47.5465 136.212 48.1625 135.94 48.9705 135.94C49.4025 135.94 49.7945 136.028 50.1465 136.204C50.5065 136.38 50.7905 136.64 50.9985 136.984C51.2145 137.328 51.3225 137.756 51.3225 138.268C51.3225 138.508 51.2985 138.76 51.2505 139.024H47.5665V139.384C47.5665 140.224 47.6945 140.828 47.9505 141.196C48.2145 141.556 48.6385 141.736 49.2225 141.736C49.5905 141.736 49.8945 141.64 50.1345 141.448C50.3825 141.256 50.5465 140.924 50.6265 140.452L51.2625 140.632ZM48.9705 136.324C48.4985 136.324 48.1465 136.504 47.9145 136.864C47.6825 137.224 47.5665 137.816 47.5665 138.64H50.2665V138.604C50.2825 138.5 50.2945 138.4 50.3025 138.304C50.3105 138.2 50.3145 138.108 50.3145 138.028C50.3145 137.428 50.1905 136.996 49.9425 136.732C49.6945 136.46 49.3705 136.324 48.9705 136.324ZM52.4552 136.384V136.06H54.3032V137.02C54.5832 136.644 54.8632 136.372 55.1432 136.204C55.4312 136.028 55.7232 135.94 56.0192 135.94C56.2752 135.94 56.5152 136.016 56.7392 136.168C56.9632 136.32 57.1512 136.564 57.3032 136.9L56.5232 137.368C56.4032 137.08 56.2672 136.88 56.1152 136.768C55.9632 136.656 55.7952 136.6 55.6112 136.6C55.4112 136.6 55.2112 136.664 55.0112 136.792C54.8192 136.92 54.6032 137.16 54.3632 137.512V141.028C54.3632 141.308 54.3752 141.476 54.3992 141.532C54.4232 141.58 54.4992 141.608 54.6272 141.616L55.5272 141.688V142H52.4552V141.688L53.1152 141.616C53.2432 141.6 53.3192 141.568 53.3432 141.52C53.3672 141.472 53.3792 141.308 53.3792 141.028V137.032C53.3792 136.752 53.3672 136.588 53.3432 136.54C53.3192 136.492 53.2432 136.46 53.1152 136.444L52.4552 136.384ZM59.1326 134.716C58.9406 134.716 58.7806 134.656 58.6526 134.536C58.5326 134.408 58.4726 134.244 58.4726 134.044C58.4726 133.852 58.5326 133.696 58.6526 133.576C58.7806 133.456 58.9406 133.396 59.1326 133.396C59.3246 133.396 59.4806 133.456 59.6006 133.576C59.7286 133.696 59.7926 133.852 59.7926 134.044C59.7926 134.244 59.7286 134.408 59.6006 134.536C59.4806 134.656 59.3246 134.716 59.1326 134.716ZM57.7286 136.384V136.06H59.6366V141.028C59.6366 141.308 59.6486 141.472 59.6726 141.52C59.6966 141.568 59.7726 141.6 59.9006 141.616L60.5606 141.688V142H57.7286V141.688L58.3886 141.616C58.5166 141.6 58.5926 141.568 58.6166 141.52C58.6406 141.472 58.6526 141.308 58.6526 141.028V137.032C58.6526 136.752 58.6406 136.588 58.6166 136.54C58.5926 136.492 58.5166 136.46 58.3886 136.444L57.7286 136.384ZM68.0225 141.688V142H65.1905V141.688L65.8505 141.616C65.9785 141.6 66.0545 141.568 66.0785 141.52C66.1025 141.472 66.1145 141.308 66.1145 141.028V138.04C66.1145 137.448 66.0185 137.032 65.8265 136.792C65.6345 136.544 65.3585 136.42 64.9985 136.42C64.7345 136.42 64.4425 136.5 64.1225 136.66C63.8025 136.82 63.5025 137.132 63.2225 137.596V141.028C63.2225 141.308 63.2345 141.472 63.2585 141.52C63.2825 141.568 63.3585 141.6 63.4865 141.616L64.1465 141.688V142H61.3145V141.688L61.9745 141.616C62.1025 141.6 62.1785 141.568 62.2025 141.52C62.2265 141.472 62.2385 141.308 62.2385 141.028V137.032C62.2385 136.752 62.2265 136.588 62.2025 136.54C62.1785 136.492 62.1025 136.46 61.9745 136.444L61.3145 136.384V136.06H63.1625V137.032C63.4505 136.648 63.7745 136.372 64.1345 136.204C64.5025 136.028 64.8705 135.94 65.2385 135.94C65.8305 135.94 66.2865 136.124 66.6065 136.492C66.9345 136.852 67.0985 137.364 67.0985 138.028V141.028C67.0985 141.308 67.1105 141.472 67.1345 141.52C67.1585 141.568 67.2345 141.6 67.3625 141.616L68.0225 141.688ZM74.3128 142.696C74.3128 143.336 74.0768 143.824 73.6048 144.16C73.1408 144.504 72.4928 144.676 71.6608 144.676C70.7488 144.676 70.0808 144.516 69.6568 144.196C69.2328 143.884 69.0128 143.488 68.9968 143.008L69.8848 142.828C69.8528 143.268 69.9688 143.62 70.2328 143.884C70.5048 144.156 70.9808 144.292 71.6608 144.292C72.2688 144.292 72.7568 144.18 73.1248 143.956C73.5008 143.732 73.6888 143.404 73.6888 142.972C73.6888 142.652 73.5808 142.412 73.3648 142.252C73.1488 142.092 72.7928 142.012 72.2968 142.012H70.8688C70.3328 142.012 69.9568 141.9 69.7408 141.676C69.5248 141.444 69.4168 141.188 69.4168 140.908C69.4168 140.676 69.4728 140.46 69.5848 140.26C69.7048 140.052 69.8928 139.848 70.1488 139.648C69.8288 139.496 69.5688 139.276 69.3688 138.988C69.1688 138.692 69.0688 138.336 69.0688 137.92C69.0688 137.48 69.1688 137.116 69.3688 136.828C69.5768 136.532 69.8488 136.312 70.1848 136.168C70.5288 136.016 70.9088 135.94 71.3248 135.94H71.5288C71.9688 135.94 72.3608 136.02 72.7048 136.18L74.4448 135.58L74.5768 136.48H73.1728C73.3568 136.64 73.5008 136.84 73.6048 137.08C73.7168 137.32 73.7728 137.6 73.7728 137.92C73.7728 138.344 73.6688 138.704 73.4608 139C73.2608 139.296 72.9928 139.52 72.6568 139.672C72.3208 139.816 71.9448 139.888 71.5288 139.888H71.3248C71.1888 139.888 71.0568 139.88 70.9288 139.864C70.8008 139.848 70.6768 139.824 70.5568 139.792C70.3808 139.912 70.2528 140.036 70.1728 140.164C70.1008 140.292 70.0648 140.424 70.0648 140.56C70.0648 140.72 70.1208 140.848 70.2328 140.944C70.3528 141.04 70.5408 141.088 70.7968 141.088H72.3568C72.9888 141.088 73.4728 141.224 73.8088 141.496C74.1448 141.768 74.3128 142.168 74.3128 142.696ZM71.5288 139.504C71.7448 139.504 71.9408 139.456 72.1168 139.36C72.3008 139.264 72.4488 139.104 72.5608 138.88C72.6728 138.648 72.7288 138.328 72.7288 137.92C72.7288 137.504 72.6728 137.184 72.5608 136.96C72.4488 136.728 72.3008 136.564 72.1168 136.468C71.9408 136.372 71.7448 136.324 71.5288 136.324H71.3248C71.1088 136.324 70.9088 136.372 70.7248 136.468C70.5408 136.564 70.3928 136.728 70.2808 136.96C70.1688 137.184 70.1128 137.504 70.1128 137.92C70.1128 138.328 70.1688 138.648 70.2808 138.88C70.3928 139.104 70.5408 139.264 70.7248 139.36C70.9088 139.456 71.1088 139.504 71.3248 139.504H71.5288ZM85.06 142L83.02 135.112L81.004 142H80.212L78.46 134.74C78.404 134.508 78.36 134.368 78.328 134.32C78.296 134.272 78.216 134.24 78.088 134.224L77.476 134.164V133.84H80.272V134.164L79.66 134.224C79.532 134.24 79.46 134.272 79.444 134.32C79.436 134.36 79.46 134.5 79.516 134.74L80.944 140.74L82.948 133.84H83.692L85.72 140.692L87.16 134.74C87.224 134.5 87.244 134.36 87.22 134.32C87.204 134.272 87.136 134.24 87.016 134.224L86.392 134.164V133.84H88.576V134.164L87.964 134.224C87.844 134.24 87.768 134.272 87.736 134.32C87.704 134.36 87.656 134.5 87.592 134.74L85.84 142H85.06ZM93.5554 140.632C93.4114 141.176 93.1394 141.56 92.7394 141.784C92.3474 142.008 91.9114 142.12 91.4314 142.12C90.5434 142.12 89.8794 141.852 89.4394 141.316C88.9994 140.772 88.7794 140.048 88.7794 139.144V138.904C88.7794 138.008 88.9914 137.292 89.4154 136.756C89.8394 136.212 90.4554 135.94 91.2634 135.94C91.6954 135.94 92.0874 136.028 92.4394 136.204C92.7994 136.38 93.0834 136.64 93.2914 136.984C93.5074 137.328 93.6154 137.756 93.6154 138.268C93.6154 138.508 93.5914 138.76 93.5434 139.024H89.8594V139.384C89.8594 140.224 89.9874 140.828 90.2434 141.196C90.5074 141.556 90.9314 141.736 91.5154 141.736C91.8834 141.736 92.1874 141.64 92.4274 141.448C92.6754 141.256 92.8394 140.924 92.9194 140.452L93.5554 140.632ZM91.2634 136.324C90.7914 136.324 90.4394 136.504 90.2074 136.864C89.9754 137.224 89.8594 137.816 89.8594 138.64H92.5594V138.604C92.5754 138.5 92.5874 138.4 92.5954 138.304C92.6034 138.2 92.6074 138.108 92.6074 138.028C92.6074 137.428 92.4834 136.996 92.2354 136.732C91.9874 136.46 91.6634 136.324 91.2634 136.324ZM94.5801 133.444V133.12H96.4881V136.924C96.7201 136.58 96.9841 136.332 97.2801 136.18C97.5761 136.02 97.8961 135.94 98.2401 135.94C98.9281 135.94 99.4601 136.2 99.8361 136.72C100.22 137.24 100.412 137.968 100.412 138.904V139.144C100.412 140.056 100.192 140.78 99.7521 141.316C99.3201 141.852 98.7121 142.12 97.9281 142.12C97.3041 142.12 96.7921 141.916 96.3921 141.508C96.2801 141.572 96.1761 141.652 96.0801 141.748C95.9841 141.844 95.8881 141.948 95.7921 142.06H95.5041V134.092C95.5041 133.812 95.4921 133.648 95.4681 133.6C95.4441 133.552 95.3681 133.52 95.2401 133.504L94.5801 133.444ZM98.0841 136.372C97.8361 136.372 97.5761 136.452 97.3041 136.612C97.0401 136.772 96.7681 137.096 96.4881 137.584V141.016C96.8321 141.488 97.2881 141.724 97.8561 141.724C98.3761 141.724 98.7521 141.528 98.9841 141.136C99.2161 140.736 99.3321 140.192 99.3321 139.504V138.544C99.3321 137.792 99.2241 137.244 99.0081 136.9C98.7921 136.548 98.4841 136.372 98.0841 136.372Z" fill="black"/>
<path d="M10.576 134.164H10.476V134.255L10.5669 134.264L10.576 134.164ZM10.576 133.84V133.74H10.476V133.84H10.576ZM16.228 134.788L16.3052 134.724L16.3052 134.724L16.228 134.788ZM16.228 141.052L16.3052 141.116L16.3052 141.116L16.228 141.052ZM10.576 142H10.476V142.1H10.576V142ZM10.576 141.688L10.5652 141.589L10.476 141.598V141.688H10.576ZM11.236 141.616L11.2468 141.715L11.2484 141.715L11.236 141.616ZM11.464 141.52L11.5534 141.565L11.5534 141.565L11.464 141.52ZM11.464 134.32L11.5534 134.275L11.5534 134.275L11.464 134.32ZM11.236 134.224L11.2484 134.125L11.2451 134.124L11.236 134.224ZM12.544 134.224V134.124H12.444V134.224H12.544ZM12.544 141.616H12.444V141.716H12.544V141.616ZM15.028 141.376L15.0776 141.463L15.0776 141.463L15.028 141.376ZM15.652 140.56L15.5581 140.526L15.5577 140.527L15.652 140.56ZM15.652 135.292L15.5577 135.325L15.5584 135.327L15.652 135.292ZM15.028 134.476L14.9765 134.562L14.9784 134.563L15.028 134.476ZM10.676 134.164V133.84H10.476V134.164H10.676ZM10.576 133.94H13.984V133.74H10.576V133.94ZM13.984 133.94C14.9365 133.94 15.6535 134.247 16.1508 134.852L16.3052 134.724C15.7625 134.065 14.9835 133.74 13.984 133.74V133.94ZM16.1508 134.852C16.6511 135.46 16.908 136.326 16.908 137.464H17.108C17.108 136.298 16.8449 135.38 16.3052 134.724L16.1508 134.852ZM16.908 137.464V138.364H17.108V137.464H16.908ZM16.908 138.364C16.908 139.51 16.651 140.381 16.1508 140.988L16.3052 141.116C16.845 140.459 17.108 139.538 17.108 138.364H16.908ZM16.1508 140.988C15.6535 141.593 14.9365 141.9 13.984 141.9V142.1C14.9835 142.1 15.7625 141.775 16.3052 141.116L16.1508 140.988ZM13.984 141.9H10.576V142.1H13.984V141.9ZM10.676 142V141.688H10.476V142H10.676ZM10.5868 141.787L11.2468 141.715L11.2252 141.517L10.5652 141.589L10.5868 141.787ZM11.2484 141.715C11.317 141.707 11.378 141.693 11.4278 141.672C11.4765 141.652 11.5263 141.619 11.5534 141.565L11.3746 141.475C11.3777 141.469 11.3775 141.476 11.3502 141.488C11.324 141.499 11.283 141.509 11.2236 141.517L11.2484 141.715ZM11.5534 141.565C11.5663 141.539 11.5735 141.508 11.5783 141.479C11.5836 141.448 11.5876 141.411 11.5907 141.368C11.597 141.283 11.6 141.169 11.6 141.028H11.4C11.4 141.167 11.397 141.275 11.3913 141.354C11.3884 141.393 11.3849 141.423 11.3812 141.446C11.377 141.47 11.3737 141.477 11.3746 141.475L11.5534 141.565ZM11.6 141.028V134.812H11.4V141.028H11.6ZM11.6 134.812C11.6 134.671 11.597 134.557 11.5907 134.472C11.5876 134.429 11.5836 134.392 11.5783 134.361C11.5735 134.332 11.5663 134.301 11.5534 134.275L11.3746 134.365C11.3737 134.363 11.377 134.37 11.3812 134.394C11.3849 134.417 11.3884 134.447 11.3913 134.486C11.397 134.565 11.4 134.673 11.4 134.812H11.6ZM11.5534 134.275C11.5263 134.221 11.4765 134.188 11.4278 134.168C11.378 134.147 11.317 134.133 11.2484 134.125L11.2236 134.323C11.283 134.331 11.324 134.341 11.3502 134.352C11.3775 134.364 11.3777 134.371 11.3746 134.365L11.5534 134.275ZM11.2451 134.124L10.5851 134.064L10.5669 134.264L11.2269 134.324L11.2451 134.124ZM13.96 134.124H12.544V134.324H13.96V134.124ZM12.444 134.224V141.616H12.644V134.224H12.444ZM12.544 141.716H13.96V141.516H12.544V141.716ZM13.96 141.716C14.4037 141.716 14.7782 141.634 15.0776 141.463L14.9784 141.289C14.7178 141.438 14.3803 141.516 13.96 141.516V141.716ZM15.0776 141.463C15.3834 141.288 15.6044 140.994 15.7463 140.593L15.5577 140.527C15.4276 140.894 15.2326 141.144 14.9784 141.289L15.0776 141.463ZM15.7459 140.594C15.8956 140.187 15.968 139.641 15.968 138.964H15.768C15.768 139.631 15.6964 140.149 15.5581 140.526L15.7459 140.594ZM15.968 138.964V136.864H15.768V138.964H15.968ZM15.968 136.864C15.968 136.194 15.8956 135.657 15.7456 135.257L15.5584 135.327C15.6964 135.695 15.768 136.206 15.768 136.864H15.968ZM15.7463 135.259C15.6044 134.858 15.3834 134.564 15.0776 134.389L14.9784 134.563C15.2326 134.708 15.4276 134.958 15.5577 135.325L15.7463 135.259ZM15.0794 134.39C14.7797 134.21 14.4044 134.124 13.96 134.124V134.324C14.3796 134.324 14.7163 134.406 14.9766 134.562L15.0794 134.39ZM19.2424 134.536L19.1693 134.605L19.174 134.609L19.2424 134.536ZM19.2424 133.576L19.174 133.503L19.1717 133.505L19.2424 133.576ZM20.1904 133.576L20.1197 133.647L20.122 133.649L20.1904 133.576ZM20.1904 134.536L20.1197 134.465L20.1197 134.465L20.1904 134.536ZM18.3184 136.384H18.2184V136.475L18.3094 136.484L18.3184 136.384ZM18.3184 136.06V135.96H18.2184V136.06H18.3184ZM20.2264 136.06H20.3264V135.96H20.2264V136.06ZM20.2624 141.52L20.3519 141.475L20.3519 141.475L20.2624 141.52ZM20.4904 141.616L20.478 141.715L20.4796 141.715L20.4904 141.616ZM21.1504 141.688H21.2504V141.598L21.1613 141.589L21.1504 141.688ZM21.1504 142V142.1H21.2504V142H21.1504ZM18.3184 142H18.2184V142.1H18.3184V142ZM18.3184 141.688L18.3076 141.589L18.2184 141.598V141.688H18.3184ZM18.9784 141.616L18.9893 141.715L18.9908 141.715L18.9784 141.616ZM19.2064 136.54L19.117 136.585L19.117 136.585L19.2064 136.54ZM18.9784 136.444L18.9908 136.345L18.9875 136.344L18.9784 136.444ZM19.7224 134.616C19.5532 134.616 19.4185 134.564 19.3108 134.463L19.174 134.609C19.3224 134.748 19.5076 134.816 19.7224 134.816V134.616ZM19.3154 134.468C19.2152 134.361 19.1624 134.222 19.1624 134.044H18.9624C18.9624 134.266 19.0297 134.455 19.1695 134.604L19.3154 134.468ZM19.1624 134.044C19.1624 133.875 19.2144 133.745 19.3131 133.647L19.1717 133.505C19.0304 133.647 18.9624 133.829 18.9624 134.044H19.1624ZM19.3108 133.649C19.4185 133.548 19.5532 133.496 19.7224 133.496V133.296C19.5076 133.296 19.3224 133.364 19.174 133.503L19.3108 133.649ZM19.7224 133.496C19.8917 133.496 20.021 133.548 20.1197 133.647L20.2611 133.505C20.1199 133.364 19.9372 133.296 19.7224 133.296V133.496ZM20.122 133.649C20.2279 133.748 20.2824 133.877 20.2824 134.044H20.4824C20.4824 133.827 20.409 133.644 20.2588 133.503L20.122 133.649ZM20.2824 134.044C20.2824 134.221 20.2269 134.358 20.1197 134.465L20.2611 134.607C20.41 134.458 20.4824 134.267 20.4824 134.044H20.2824ZM20.1197 134.465C20.021 134.564 19.8917 134.616 19.7224 134.616V134.816C19.9372 134.816 20.1199 134.748 20.2611 134.607L20.1197 134.465ZM18.4184 136.384V136.06H18.2184V136.384H18.4184ZM18.3184 136.16H20.2264V135.96H18.3184V136.16ZM20.1264 136.06V141.028H20.3264V136.06H20.1264ZM20.1264 141.028C20.1264 141.169 20.1294 141.283 20.1357 141.368C20.1388 141.411 20.1429 141.448 20.1481 141.479C20.1529 141.508 20.1601 141.539 20.173 141.565L20.3519 141.475C20.3528 141.477 20.3494 141.47 20.3453 141.446C20.3415 141.423 20.338 141.393 20.3352 141.354C20.3294 141.275 20.3264 141.167 20.3264 141.028H20.1264ZM20.173 141.565C20.2001 141.619 20.2499 141.652 20.2986 141.672C20.3484 141.693 20.4094 141.707 20.478 141.715L20.5028 141.517C20.4434 141.509 20.4025 141.499 20.3762 141.488C20.3489 141.476 20.3488 141.469 20.3519 141.475L20.173 141.565ZM20.4796 141.715L21.1396 141.787L21.1613 141.589L20.5013 141.517L20.4796 141.715ZM21.0504 141.688V142H21.2504V141.688H21.0504ZM21.1504 141.9H18.3184V142.1H21.1504V141.9ZM18.4184 142V141.688H18.2184V142H18.4184ZM18.3293 141.787L18.9893 141.715L18.9676 141.517L18.3076 141.589L18.3293 141.787ZM18.9908 141.715C19.0594 141.707 19.1205 141.693 19.1702 141.672C19.2189 141.652 19.2688 141.619 19.2959 141.565L19.117 141.475C19.1201 141.469 19.1199 141.476 19.0926 141.488C19.0664 141.499 19.0254 141.509 18.966 141.517L18.9908 141.715ZM19.2959 141.565C19.3088 141.539 19.3159 141.508 19.3208 141.479C19.326 141.448 19.33 141.411 19.3332 141.368C19.3394 141.283 19.3424 141.169 19.3424 141.028H19.1424C19.1424 141.167 19.1394 141.275 19.1337 141.354C19.1308 141.393 19.1274 141.423 19.1236 141.446C19.1194 141.47 19.1161 141.477 19.117 141.475L19.2959 141.565ZM19.3424 141.028V137.032H19.1424V141.028H19.3424ZM19.3424 137.032C19.3424 136.891 19.3394 136.777 19.3332 136.692C19.33 136.649 19.326 136.612 19.3208 136.581C19.3159 136.552 19.3088 136.521 19.2959 136.495L19.117 136.585C19.1161 136.583 19.1194 136.59 19.1236 136.614C19.1274 136.637 19.1308 136.667 19.1337 136.706C19.1394 136.785 19.1424 136.893 19.1424 137.032H19.3424ZM19.2959 136.495C19.2688 136.441 19.2189 136.408 19.1702 136.388C19.1205 136.367 19.0594 136.353 18.9908 136.345L18.966 136.543C19.0254 136.551 19.0664 136.561 19.0926 136.572C19.1199 136.584 19.1201 136.591 19.117 136.585L19.2959 136.495ZM18.9875 136.344L18.3275 136.284L18.3094 136.484L18.9694 136.544L18.9875 136.344ZM24.4364 139.576L24.4614 139.479L24.4603 139.479L24.4364 139.576ZM23.7044 139.396L23.6796 139.493L23.6805 139.493L23.7044 139.396ZM22.4084 136.828L22.4973 136.874L22.4973 136.874L22.4084 136.828ZM23.0564 136.192L23.1039 136.28L23.1047 136.28L23.0564 136.192ZM25.4924 136.204L25.5406 136.116L25.5406 136.116L25.4924 136.204ZM26.2844 137.8L26.302 137.898L26.3729 137.886L26.3833 137.814L26.2844 137.8ZM25.3484 137.968L25.25 137.95L25.2238 138.092L25.366 138.066L25.3484 137.968ZM25.1804 136.756L25.0982 136.813L25.0993 136.815L25.1804 136.756ZM23.3204 136.6L23.3836 136.678L23.3852 136.676L23.3204 136.6ZM23.2364 138.064L23.1583 138.126L23.1596 138.128L23.2364 138.064ZM24.0404 138.496L24.0156 138.593L24.0172 138.593L24.0404 138.496ZM24.7964 138.676L24.8199 138.579L24.8195 138.579L24.7964 138.676ZM26.0204 139.288L25.9507 139.36L25.9517 139.361L26.0204 139.288ZM25.9004 141.64L25.8356 141.564L25.8348 141.565L25.9004 141.64ZM23.3564 141.976L23.324 142.071L23.327 142.072L23.3564 141.976ZM22.5524 141.496L22.4816 141.567L22.4842 141.569L22.5524 141.496ZM22.0604 140.632L22.0267 140.538L21.9377 140.57L21.9645 140.66L22.0604 140.632ZM22.7324 140.392L22.8309 140.375L22.8105 140.258L22.6987 140.298L22.7324 140.392ZM23.3084 141.448L23.3644 141.365L23.3644 141.365L23.3084 141.448ZM24.9644 141.64L24.9317 141.545L24.9305 141.546L24.9644 141.64ZM25.4684 141.304L25.5449 141.368L25.5465 141.366L25.4684 141.304ZM25.3964 140.032L25.3241 140.101L25.3241 140.101L25.3964 140.032ZM24.4603 139.479L23.7283 139.299L23.6805 139.493L24.4125 139.673L24.4603 139.479ZM23.7292 139.299C23.2421 139.174 22.8876 138.975 22.6549 138.706C22.4234 138.44 22.3044 138.096 22.3044 137.668H22.1044C22.1044 138.136 22.2354 138.528 22.5039 138.838C22.7712 139.145 23.1667 139.362 23.6796 139.493L23.7292 139.299ZM22.3044 137.668C22.3044 137.388 22.3685 137.124 22.4973 136.874L22.3195 136.782C22.1762 137.06 22.1044 137.356 22.1044 137.668H22.3044ZM22.4973 136.874C22.6229 136.63 22.8232 136.432 23.1039 136.28L23.0088 136.104C22.6975 136.272 22.4659 136.498 22.3195 136.782L22.4973 136.874ZM23.1047 136.28C23.3896 136.122 23.7595 136.04 24.2204 136.04V135.84C23.7373 135.84 23.3312 135.926 23.008 136.104L23.1047 136.28ZM24.2204 136.04C24.7385 136.04 25.1441 136.127 25.4442 136.292L25.5406 136.116C25.2007 135.929 24.7582 135.84 24.2204 135.84V136.04ZM25.4442 136.292C25.749 136.459 25.9559 136.673 26.0734 136.93L26.2553 136.846C26.1168 136.543 25.8758 136.301 25.5406 136.116L25.4442 136.292ZM26.0734 136.93C26.1928 137.191 26.2309 137.475 26.1854 137.786L26.3833 137.814C26.4339 137.469 26.392 137.145 26.2553 136.846L26.0734 136.93ZM26.2667 137.702L25.3307 137.87L25.366 138.066L26.302 137.898L26.2667 137.702ZM25.4467 137.986C25.5453 137.452 25.4918 137.016 25.2614 136.697L25.0993 136.815C25.2849 137.072 25.3435 137.444 25.25 137.95L25.4467 137.986ZM25.2625 136.699C25.038 136.376 24.6695 136.224 24.1844 136.224V136.424C24.6273 136.424 24.9227 136.56 25.0982 136.813L25.2625 136.699ZM24.1844 136.224C23.8072 136.224 23.4941 136.321 23.2555 136.524L23.3852 136.676C23.5787 136.511 23.8416 136.424 24.1844 136.424V136.224ZM23.2572 136.522C23.0125 136.722 22.8964 137.014 22.8964 137.38H23.0964C23.0964 137.058 23.1963 136.83 23.3835 136.678L23.2572 136.522ZM22.8964 137.38C22.8964 137.659 22.9841 137.909 23.1583 138.126L23.3145 138.002C23.1686 137.819 23.0964 137.613 23.0964 137.38H22.8964ZM23.1596 138.128C23.3386 138.343 23.6298 138.494 24.0156 138.593L24.0651 138.399C23.699 138.306 23.4541 138.169 23.3132 138L23.1596 138.128ZM24.0172 138.593L24.7732 138.773L24.8195 138.579L24.0635 138.399L24.0172 138.593ZM24.7728 138.773C25.2893 138.898 25.6792 139.096 25.9507 139.36L26.0901 139.216C25.7855 138.92 25.3594 138.71 24.8199 138.579L24.7728 138.773ZM25.9517 139.361C26.2252 139.619 26.3644 139.96 26.3644 140.392H26.5644C26.5644 139.912 26.4075 139.517 26.0891 139.215L25.9517 139.361ZM26.3644 140.392C26.3644 140.876 26.1883 141.264 25.8356 141.564L25.9652 141.716C26.3644 141.376 26.5644 140.932 26.5644 140.392H26.3644ZM25.8348 141.565C25.4912 141.863 24.9901 142.02 24.3164 142.02V142.22C25.0187 142.22 25.5735 142.057 25.966 141.715L25.8348 141.565ZM24.3164 142.02C23.9983 142.02 23.6882 141.973 23.3858 141.88L23.327 142.072C23.6485 142.171 23.9785 142.22 24.3164 142.22V142.02ZM23.3887 141.881C23.0979 141.782 22.8421 141.629 22.6205 141.423L22.4842 141.569C22.7267 141.795 23.0069 141.962 23.324 142.071L23.3887 141.881ZM22.6231 141.425C22.4126 141.215 22.2563 140.942 22.1563 140.604L21.9645 140.66C22.0724 141.026 22.2441 141.329 22.4817 141.567L22.6231 141.425ZM22.094 140.726L22.766 140.486L22.6987 140.298L22.0267 140.538L22.094 140.726ZM22.6339 140.409C22.7245 140.928 22.9256 141.31 23.2524 141.531L23.3644 141.365C23.0991 141.186 22.9163 140.864 22.8309 140.375L22.6339 140.409ZM23.2524 141.531C23.5662 141.743 23.926 141.848 24.3284 141.848V141.648C23.9628 141.648 23.6426 141.553 23.3644 141.365L23.2524 141.531ZM24.3284 141.848C24.5633 141.848 24.7868 141.81 24.9982 141.734L24.9305 141.546C24.7419 141.614 24.5415 141.648 24.3284 141.648V141.848ZM24.9971 141.734C25.2202 141.657 25.404 141.536 25.5449 141.368L25.3919 141.24C25.2767 141.376 25.1245 141.479 24.9317 141.546L24.9971 141.734ZM25.5465 141.366C25.6915 141.185 25.7604 140.958 25.7604 140.692H25.5604C25.5604 140.922 25.5013 141.103 25.3903 141.242L25.5465 141.366ZM25.7604 140.692C25.7604 140.41 25.6625 140.166 25.4686 139.963L25.3241 140.101C25.4822 140.266 25.5604 140.462 25.5604 140.692H25.7604ZM25.4686 139.963C25.2727 139.758 24.93 139.6 24.4614 139.479L24.4113 139.673C24.8708 139.792 25.168 139.938 25.3241 140.101L25.4686 139.963ZM29.364 136.876L29.281 136.82L29.2808 136.821L29.364 136.876ZM29.364 141.196L29.2802 141.251L29.2816 141.253L29.364 141.196ZM31.476 141.448L31.5397 141.525L31.5397 141.525L31.476 141.448ZM31.944 140.452L31.9712 140.356L31.864 140.325L31.8454 140.435L31.944 140.452ZM32.58 140.632L32.6766 140.658L32.7018 140.563L32.6072 140.536L32.58 140.632ZM31.788 141.784L31.8384 141.87L31.8384 141.87L31.788 141.784ZM28.56 141.316L28.4811 141.377L28.4821 141.379L28.56 141.316ZM28.56 136.756L28.6384 136.818L28.6388 136.817L28.56 136.756ZM31.668 136.24L31.6168 136.326L31.6177 136.326L31.668 136.24ZM32.4 137.056L32.3077 137.095L32.3081 137.095L32.4 137.056ZM32.52 138.172L32.535 138.271L32.6074 138.26L32.6188 138.187L32.52 138.172ZM31.572 138.316L31.4729 138.302L31.4547 138.435L31.587 138.415L31.572 138.316ZM31.392 136.84L31.3055 136.89L31.3064 136.892L31.392 136.84ZM30.396 136.224C29.9224 136.224 29.5474 136.425 29.281 136.82L29.4469 136.932C29.6765 136.591 29.9896 136.424 30.396 136.424V136.224ZM29.2808 136.821C29.0236 137.206 28.904 137.828 28.904 138.664H29.104C29.104 137.836 29.2243 137.266 29.4472 136.931L29.2808 136.821ZM28.904 138.664V139.384H29.104V138.664H28.904ZM28.904 139.384C28.904 140.228 29.0237 140.857 29.2802 141.251L29.4477 141.141C29.2243 140.799 29.104 140.22 29.104 139.384H28.904ZM29.2816 141.253C29.5532 141.647 29.9888 141.836 30.564 141.836V141.636C30.0352 141.636 29.6708 141.465 29.4463 141.139L29.2816 141.253ZM30.564 141.836C30.9573 141.836 31.2857 141.735 31.5397 141.525L31.4122 141.371C31.2022 141.545 30.9226 141.636 30.564 141.636V141.836ZM31.5397 141.525C31.7984 141.311 31.9608 140.951 32.0426 140.469L31.8454 140.435C31.7671 140.897 31.6176 141.201 31.4122 141.371L31.5397 141.525ZM31.9167 140.548L32.5527 140.728L32.6072 140.536L31.9712 140.356L31.9167 140.548ZM32.4833 140.606C32.3442 141.132 32.093 141.49 31.7376 141.698L31.8384 141.87C32.2509 141.63 32.5278 141.22 32.6766 140.658L32.4833 140.606ZM31.7376 141.698C31.3698 141.912 30.9594 142.02 30.504 142.02V142.22C30.9925 142.22 31.4381 142.104 31.8384 141.87L31.7376 141.698ZM30.504 142.02C29.6618 142.02 29.0461 141.76 28.6378 141.253L28.4821 141.379C28.9378 141.944 29.6182 142.22 30.504 142.22V142.02ZM28.6388 141.255C28.2323 140.733 28.024 140.033 28.024 139.144H27.824C27.824 140.063 28.0397 140.811 28.4811 141.377L28.6388 141.255ZM28.024 139.144V138.904H27.824V139.144H28.024ZM28.024 138.904C28.024 138.023 28.2322 137.332 28.6384 136.818L28.4815 136.694C28.0398 137.252 27.824 137.993 27.824 138.904H28.024ZM28.6388 136.817C29.0407 136.302 29.6212 136.04 30.396 136.04V135.84C29.5707 135.84 28.9272 136.122 28.4811 136.695L28.6388 136.817ZM30.396 136.04C30.8954 136.04 31.3004 136.138 31.6168 136.326L31.7191 136.154C31.3636 135.942 30.9205 135.84 30.396 135.84V136.04ZM31.6177 136.326C31.9442 136.516 32.1727 136.772 32.3077 137.095L32.4922 137.017C32.3392 136.652 32.0797 136.364 31.7182 136.154L31.6177 136.326ZM32.3081 137.095C32.4437 137.412 32.4827 137.765 32.4212 138.157L32.6188 138.187C32.6853 137.763 32.6442 137.372 32.4919 137.017L32.3081 137.095ZM32.505 138.073L31.557 138.217L31.587 138.415L32.535 138.271L32.505 138.073ZM31.671 138.33C31.7604 137.68 31.7027 137.161 31.4775 136.788L31.3064 136.892C31.4972 137.207 31.5595 137.672 31.4729 138.302L31.671 138.33ZM31.4784 136.79C31.2572 136.409 30.8885 136.224 30.396 136.224V136.424C30.8314 136.424 31.1267 136.583 31.3055 136.89L31.4784 136.79ZM38.4474 141.316L38.3708 141.252L38.3707 141.252L38.4474 141.316ZM34.6074 141.316L34.5302 141.38L34.5312 141.381L34.6074 141.316ZM34.6074 136.756L34.6841 136.82L34.6846 136.82L34.6074 136.756ZM38.4474 136.756L38.3702 136.82L38.3712 136.821L38.4474 136.756ZM37.6554 136.876L37.5733 136.933L37.5748 136.935L37.6554 136.876ZM35.3994 136.876L35.3182 136.818L35.3179 136.818L35.3994 136.876ZM35.3994 141.196L35.3173 141.253L35.3188 141.255L35.3994 141.196ZM37.6554 141.196L37.5742 141.138L37.5739 141.138L37.6554 141.196ZM39.0314 138.904V139.144H39.2314V138.904H39.0314ZM39.0314 139.144C39.0314 140.031 38.8079 140.73 38.3708 141.252L38.524 141.38C38.9989 140.814 39.2314 140.065 39.2314 139.144H39.0314ZM38.3707 141.252C37.9454 141.761 37.336 142.02 36.5274 142.02V142.22C37.3828 142.22 38.0535 141.943 38.5241 141.38L38.3707 141.252ZM36.5274 142.02C35.7272 142.02 35.1172 141.761 34.6836 141.251L34.5312 141.381C35.0096 141.943 35.6796 142.22 36.5274 142.22V142.02ZM34.6846 141.252C34.2551 140.731 34.0354 140.031 34.0354 139.144H33.8354C33.8354 140.065 34.0637 140.813 34.5302 141.38L34.6846 141.252ZM34.0354 139.144V138.904H33.8354V139.144H34.0354ZM34.0354 138.904C34.0354 138.025 34.255 137.334 34.6841 136.82L34.5307 136.692C34.0638 137.25 33.8354 137.991 33.8354 138.904H34.0354ZM34.6846 136.82C35.1101 136.303 35.7193 136.04 36.5274 136.04V135.84C35.6715 135.84 35.0007 136.121 34.5302 136.692L34.6846 136.82ZM36.5274 136.04C37.3355 136.04 37.9447 136.303 38.3702 136.82L38.5246 136.692C38.0541 136.121 37.3833 135.84 36.5274 135.84V136.04ZM38.3712 136.821C38.808 137.334 39.0314 138.025 39.0314 138.904H39.2314C39.2314 137.991 38.9988 137.25 38.5236 136.691L38.3712 136.821ZM38.1514 138.664C38.1514 137.827 38.0196 137.203 37.736 136.817L37.5748 136.935C37.8193 137.269 37.9514 137.837 37.9514 138.664H38.1514ZM37.7375 136.819C37.4606 136.421 37.0521 136.224 36.5274 136.224V136.424C36.9947 136.424 37.3382 136.595 37.5733 136.933L37.7375 136.819ZM36.5274 136.224C36.0101 136.224 35.6026 136.421 35.3182 136.818L35.4807 136.934C35.7242 136.595 36.0687 136.424 36.5274 136.424V136.224ZM35.3179 136.818C35.0432 137.204 34.9154 137.827 34.9154 138.664H35.1154C35.1154 137.837 35.2436 137.268 35.4809 136.934L35.3179 136.818ZM34.9154 138.664V139.384H35.1154V138.664H34.9154ZM34.9154 139.384C34.9154 140.229 35.0432 140.859 35.3173 141.253L35.4815 141.139C35.2436 140.797 35.1154 140.219 35.1154 139.384H34.9154ZM35.3188 141.255C35.6036 141.643 36.011 141.836 36.5274 141.836V141.636C36.0678 141.636 35.7233 141.469 35.48 141.137L35.3188 141.255ZM36.5274 141.836C37.0512 141.836 37.4596 141.644 37.7369 141.254L37.5739 141.138C37.3392 141.468 36.9956 141.636 36.5274 141.636V141.836ZM37.7367 141.254C38.0195 140.86 38.1514 140.229 38.1514 139.384H37.9514C37.9514 140.219 37.8193 140.796 37.5742 141.138L37.7367 141.254ZM38.1514 139.384V138.664H37.9514V139.384H38.1514ZM44.9527 136.96L45.0472 136.993L45.0476 136.992L44.9527 136.96ZM43.2007 142V142.1H43.2718L43.2952 142.033L43.2007 142ZM42.4207 142L42.3263 142.033L42.3498 142.1H42.4207V142ZM40.6567 136.96L40.5622 136.993L40.5623 136.993L40.6567 136.96ZM40.4767 136.54L40.3999 136.604L40.3999 136.604L40.4767 136.54ZM40.2247 136.444L40.2371 136.345L40.2345 136.344L40.2247 136.444ZM39.6127 136.384H39.5127V136.475L39.603 136.484L39.6127 136.384ZM39.6127 136.06V135.96H39.5127V136.06H39.6127ZM42.3487 136.06H42.4487V135.96H42.3487V136.06ZM42.3487 136.384L42.3585 136.484L42.4487 136.475V136.384H42.3487ZM41.7367 136.444L41.727 136.344L41.7243 136.345L41.7367 136.444ZM41.5327 136.54L41.6308 136.56L41.6314 136.556L41.5327 136.54ZM41.6407 136.96L41.5458 136.992L41.5463 136.993L41.6407 136.96ZM43.0927 141.136L42.9983 141.169L43.0935 141.443L43.1873 141.168L43.0927 141.136ZM44.5207 136.96L44.6153 136.992L44.6156 136.992L44.5207 136.96ZM44.6287 136.54L44.53 136.556L44.5307 136.56L44.6287 136.54ZM44.4247 136.444L44.4371 136.345L44.4343 136.344L44.4247 136.444ZM43.8007 136.384H43.7007V136.475L43.7911 136.484L43.8007 136.384ZM43.8007 136.06V135.96H43.7007V136.06H43.8007ZM45.9847 136.06H46.0847V135.96H45.9847V136.06ZM45.9847 136.384L45.9945 136.484L46.0847 136.475V136.384H45.9847ZM45.3727 136.444L45.363 136.344L45.3603 136.345L45.3727 136.444ZM45.1207 136.54L45.0439 136.476L45.0426 136.478L45.1207 136.54ZM44.8583 136.927L43.1063 141.967L43.2952 142.033L45.0472 136.993L44.8583 136.927ZM43.2007 141.9H42.4207V142.1H43.2007V141.9ZM42.5151 141.967L40.7511 136.927L40.5623 136.993L42.3263 142.033L42.5151 141.967ZM40.7513 136.927C40.7109 136.81 40.675 136.715 40.6436 136.642C40.6137 136.572 40.5839 136.512 40.5535 136.476L40.3999 136.604C40.4095 136.616 40.4297 136.65 40.4598 136.72C40.4885 136.787 40.5226 136.878 40.5622 136.993L40.7513 136.927ZM40.5535 136.476C40.487 136.396 40.3676 136.361 40.2371 136.345L40.2123 136.543C40.3378 136.559 40.3864 136.588 40.3999 136.604L40.5535 136.476ZM40.2345 136.344L39.6225 136.284L39.603 136.484L40.215 136.544L40.2345 136.344ZM39.7127 136.384V136.06H39.5127V136.384H39.7127ZM39.6127 136.16H42.3487V135.96H39.6127V136.16ZM42.2487 136.06V136.384H42.4487V136.06H42.2487ZM42.339 136.284L41.727 136.344L41.7465 136.544L42.3585 136.484L42.339 136.284ZM41.7243 136.345C41.6562 136.353 41.5951 136.367 41.5471 136.39C41.5002 136.412 41.4459 136.452 41.4341 136.524L41.6314 136.556C41.6275 136.58 41.6112 136.58 41.6323 136.57C41.6523 136.561 41.6892 136.551 41.7491 136.543L41.7243 136.345ZM41.4347 136.52C41.4289 136.549 41.4325 136.581 41.4362 136.604C41.4404 136.631 41.4475 136.663 41.4569 136.7C41.4757 136.773 41.5056 136.871 41.5459 136.992L41.7356 136.928C41.6959 136.809 41.6677 136.717 41.6506 136.65C41.642 136.617 41.6366 136.591 41.6338 136.573C41.6304 136.552 41.6325 136.551 41.6308 136.56L41.4347 136.52ZM41.5463 136.993L42.9983 141.169L43.1872 141.103L41.7352 136.927L41.5463 136.993ZM43.1873 141.168L44.6153 136.992L44.4261 136.928L42.9981 141.104L43.1873 141.168ZM44.6156 136.992C44.6559 136.871 44.6857 136.773 44.7046 136.7C44.714 136.663 44.7211 136.631 44.7253 136.604C44.7289 136.581 44.7325 136.549 44.7268 136.52L44.5307 136.56C44.5289 136.551 44.531 136.552 44.5277 136.573C44.5249 136.591 44.5195 136.617 44.5109 136.65C44.4937 136.717 44.4656 136.809 44.4259 136.928L44.6156 136.992ZM44.7274 136.524C44.7155 136.452 44.6612 136.412 44.6143 136.39C44.5663 136.367 44.5052 136.353 44.4371 136.345L44.4123 136.543C44.4722 136.551 44.5091 136.561 44.5291 136.57C44.5502 136.58 44.5339 136.58 44.5301 136.556L44.7274 136.524ZM44.4343 136.344L43.8103 136.284L43.7911 136.484L44.4151 136.544L44.4343 136.344ZM43.9007 136.384V136.06H43.7007V136.384H43.9007ZM43.8007 136.16H45.9847V135.96H43.8007V136.16ZM45.8847 136.06V136.384H46.0847V136.06H45.8847ZM45.975 136.284L45.363 136.344L45.3825 136.544L45.9945 136.484L45.975 136.284ZM45.3603 136.345C45.2298 136.361 45.1104 136.396 45.0439 136.476L45.1975 136.604C45.211 136.588 45.2596 136.559 45.3851 136.543L45.3603 136.345ZM45.0426 136.478C45.0159 136.511 44.989 136.57 44.9619 136.638C44.9328 136.71 44.8981 136.808 44.8579 136.928L45.0476 136.992C45.0873 136.872 45.1206 136.78 45.1476 136.712C45.1611 136.678 45.1725 136.652 45.1821 136.633C45.1868 136.623 45.1908 136.616 45.1939 136.61C45.1972 136.604 45.1989 136.602 45.1988 136.602L45.0426 136.478ZM51.2625 140.632L51.3591 140.658L51.3843 140.563L51.2897 140.536L51.2625 140.632ZM50.4465 141.784L50.3976 141.697L50.3969 141.697L50.4465 141.784ZM47.1465 141.316L47.0687 141.379L47.0692 141.379L47.1465 141.316ZM47.1225 136.756L47.2009 136.818L47.2013 136.817L47.1225 136.756ZM50.1465 136.204L50.1017 136.293L50.1025 136.294L50.1465 136.204ZM50.9985 136.984L50.9129 137.036L50.9138 137.037L50.9985 136.984ZM51.2505 139.024V139.124H51.3339L51.3489 139.042L51.2505 139.024ZM47.5665 139.024V138.924H47.4665V139.024H47.5665ZM47.9505 141.196L47.8684 141.253L47.8698 141.255L47.9505 141.196ZM50.1345 141.448L50.0732 141.369L50.072 141.37L50.1345 141.448ZM50.6265 140.452L50.6537 140.356L50.5465 140.325L50.5279 140.435L50.6265 140.452ZM47.9145 136.864L47.8304 136.81L47.8304 136.81L47.9145 136.864ZM47.5665 138.64H47.4665V138.74H47.5665V138.64ZM50.2665 138.64V138.74H50.3665V138.64H50.2665ZM50.2665 138.604L50.1676 138.589L50.1665 138.596V138.604H50.2665ZM50.3025 138.304L50.4021 138.312L50.4022 138.312L50.3025 138.304ZM49.9425 136.732L49.8686 136.799L49.8696 136.8L49.9425 136.732ZM51.1658 140.606C51.027 141.131 50.7688 141.489 50.3976 141.697L50.4953 141.871C50.9241 141.631 51.2099 141.221 51.3591 140.658L51.1658 140.606ZM50.3969 141.697C50.0209 141.912 49.6022 142.02 49.1385 142.02V142.22C49.6347 142.22 50.088 142.104 50.4961 141.871L50.3969 141.697ZM49.1385 142.02C48.2713 142.02 47.6397 141.759 47.2238 141.253L47.0692 141.379C47.5333 141.945 48.2296 142.22 49.1385 142.22V142.02ZM47.2242 141.253C46.8024 140.732 46.5865 140.032 46.5865 139.144H46.3865C46.3865 140.064 46.6106 140.812 47.0687 141.379L47.2242 141.253ZM46.5865 139.144V138.904H46.3865V139.144H46.5865ZM46.5865 138.904C46.5865 138.023 46.7947 137.332 47.2009 136.818L47.044 136.694C46.6023 137.252 46.3865 137.993 46.3865 138.904H46.5865ZM47.2013 136.817C47.603 136.302 48.1873 136.04 48.9705 136.04V135.84C48.1376 135.84 47.4899 136.122 47.0436 136.695L47.2013 136.817ZM48.9705 136.04C49.3885 136.04 49.7649 136.125 50.1017 136.293L50.1912 136.115C49.824 135.931 49.4165 135.84 48.9705 135.84V136.04ZM50.1025 136.294C50.4452 136.461 50.7148 136.708 50.9129 137.036L51.084 136.932C50.8661 136.572 50.5677 136.299 50.1904 136.114L50.1025 136.294ZM50.9138 137.037C51.1175 137.362 51.2225 137.77 51.2225 138.268H51.4225C51.4225 137.742 51.3115 137.294 51.0832 136.931L50.9138 137.037ZM51.2225 138.268C51.2225 138.501 51.1991 138.747 51.1521 139.006L51.3489 139.042C51.3978 138.773 51.4225 138.515 51.4225 138.268H51.2225ZM51.2505 138.924H47.5665V139.124H51.2505V138.924ZM47.4665 139.024V139.384H47.6665V139.024H47.4665ZM47.4665 139.384C47.4665 140.229 47.5943 140.859 47.8684 141.253L48.0326 141.139C47.7946 140.797 47.6665 140.219 47.6665 139.384H47.4665ZM47.8698 141.255C48.1582 141.648 48.6174 141.836 49.2225 141.836V141.636C48.6596 141.636 48.2707 141.464 48.0311 141.137L47.8698 141.255ZM49.2225 141.836C49.6085 141.836 49.9359 141.735 50.1969 141.526L50.072 141.37C49.853 141.545 49.5724 141.636 49.2225 141.636V141.836ZM50.1957 141.527C50.4717 141.313 50.643 140.953 50.7251 140.469L50.5279 140.435C50.4499 140.895 50.2932 141.199 50.0733 141.369L50.1957 141.527ZM50.5992 140.548L51.2352 140.728L51.2897 140.536L50.6537 140.356L50.5992 140.548ZM48.9705 136.224C48.4686 136.224 48.0829 136.418 47.8304 136.81L47.9985 136.918C48.21 136.59 48.5283 136.424 48.9705 136.424V136.224ZM47.8304 136.81C47.5821 137.195 47.4665 137.812 47.4665 138.64H47.6665C47.6665 137.82 47.7828 137.253 47.9985 136.918L47.8304 136.81ZM47.5665 138.74H50.2665V138.54H47.5665V138.74ZM50.3665 138.64V138.604H50.1665V138.64H50.3665ZM50.3653 138.619C50.3816 138.513 50.3939 138.411 50.4021 138.312L50.2028 138.296C50.195 138.389 50.1833 138.487 50.1676 138.589L50.3653 138.619ZM50.4022 138.312C50.4103 138.206 50.4145 138.111 50.4145 138.028H50.2145C50.2145 138.105 50.2106 138.194 50.2028 138.296L50.4022 138.312ZM50.4145 138.028C50.4145 137.418 50.2892 136.955 50.0154 136.664L49.8696 136.8C50.0918 137.037 50.2145 137.438 50.2145 138.028H50.4145ZM50.0164 136.665C49.7477 136.37 49.3959 136.224 48.9705 136.224V136.424C49.3451 136.424 49.6413 136.55 49.8686 136.799L50.0164 136.665ZM52.4552 136.384H52.3552V136.475L52.4461 136.484L52.4552 136.384ZM52.4552 136.06V135.96H52.3552V136.06H52.4552ZM54.3032 136.06H54.4032V135.96H54.3032V136.06ZM54.3032 137.02H54.2032V137.322L54.3834 137.08L54.3032 137.02ZM55.1432 136.204L55.1946 136.29L55.1953 136.289L55.1432 136.204ZM56.7392 136.168L56.7953 136.085L56.7953 136.085L56.7392 136.168ZM57.3032 136.9L57.3546 136.986L57.431 136.94L57.3943 136.859L57.3032 136.9ZM56.5232 137.368L56.4308 137.406L56.4754 137.513L56.5746 137.454L56.5232 137.368ZM56.1152 136.768L56.0558 136.849L56.0558 136.849L56.1152 136.768ZM55.0112 136.792L54.9572 136.708L54.9557 136.709L55.0112 136.792ZM54.3632 137.512L54.2805 137.456L54.2632 137.481V137.512H54.3632ZM54.3992 141.532L54.3071 141.571L54.3097 141.577L54.3992 141.532ZM54.6272 141.616L54.6351 141.516L54.6334 141.516L54.6272 141.616ZM55.5272 141.688H55.6272V141.596L55.5351 141.588L55.5272 141.688ZM55.5272 142V142.1H55.6272V142H55.5272ZM52.4552 142H52.3552V142.1H52.4552V142ZM52.4552 141.688L52.4443 141.589L52.3552 141.598V141.688H52.4552ZM53.1152 141.616L53.126 141.715L53.1276 141.715L53.1152 141.616ZM53.3432 136.54L53.2537 136.585L53.2537 136.585L53.3432 136.54ZM53.1152 136.444L53.1276 136.345L53.1242 136.344L53.1152 136.444ZM52.5552 136.384V136.06H52.3552V136.384H52.5552ZM52.4552 136.16H54.3032V135.96H52.4552V136.16ZM54.2032 136.06V137.02H54.4032V136.06H54.2032ZM54.3834 137.08C54.6587 136.71 54.9295 136.449 55.1946 136.29L55.0917 136.118C54.7968 136.295 54.5076 136.578 54.223 136.96L54.3834 137.08ZM55.1953 136.289C55.4699 136.122 55.744 136.04 56.0192 136.04V135.84C55.7023 135.84 55.3925 135.934 55.091 136.119L55.1953 136.289ZM56.0192 136.04C56.254 136.04 56.4746 136.109 56.683 136.251L56.7953 136.085C56.5557 135.923 56.2964 135.84 56.0192 135.84V136.04ZM56.683 136.251C56.8872 136.389 57.065 136.616 57.212 136.941L57.3943 136.859C57.2373 136.512 57.0391 136.251 56.7953 136.085L56.683 136.251ZM57.2517 136.814L56.4717 137.282L56.5746 137.454L57.3546 136.986L57.2517 136.814ZM56.6155 137.33C56.4926 137.035 56.3477 136.815 56.1745 136.687L56.0558 136.849C56.1866 136.945 56.3138 137.125 56.4308 137.406L56.6155 137.33ZM56.1745 136.687C56.0058 136.563 55.8171 136.5 55.6112 136.5V136.7C55.7732 136.7 55.9205 136.749 56.0558 136.849L56.1745 136.687ZM55.6112 136.5C55.3887 136.5 55.1703 136.571 54.9573 136.708L55.0651 136.876C55.252 136.757 55.4336 136.7 55.6112 136.7V136.5ZM54.9557 136.709C54.7474 136.848 54.5227 137.1 54.2805 137.456L54.4458 137.568C54.6836 137.22 54.8909 136.992 55.0666 136.875L54.9557 136.709ZM54.2632 137.512V141.028H54.4632V137.512H54.2632ZM54.2632 141.028C54.2632 141.169 54.2662 141.284 54.2724 141.371C54.2783 141.453 54.2876 141.526 54.3072 141.571L54.4911 141.493C54.4867 141.482 54.478 141.443 54.4719 141.357C54.4661 141.276 54.4632 141.167 54.4632 141.028H54.2632ZM54.3097 141.577C54.3377 141.633 54.3896 141.664 54.4396 141.683C54.4904 141.702 54.5522 141.712 54.6209 141.716L54.6334 141.516C54.5741 141.512 54.5339 141.504 54.5087 141.495C54.4827 141.486 54.4846 141.479 54.4886 141.487L54.3097 141.577ZM54.6192 141.716L55.5192 141.788L55.5351 141.588L54.6351 141.516L54.6192 141.716ZM55.4272 141.688V142H55.6272V141.688H55.4272ZM55.5272 141.9H52.4552V142.1H55.5272V141.9ZM52.5552 142V141.688H52.3552V142H52.5552ZM52.466 141.787L53.126 141.715L53.1043 141.517L52.4443 141.589L52.466 141.787ZM53.1276 141.715C53.1961 141.707 53.2572 141.693 53.307 141.672C53.3557 141.652 53.4055 141.619 53.4326 141.565L53.2537 141.475C53.2568 141.469 53.2567 141.476 53.2294 141.488C53.2031 141.499 53.1622 141.509 53.1028 141.517L53.1276 141.715ZM53.4326 141.565C53.4455 141.539 53.4527 141.508 53.4575 141.479C53.4627 141.448 53.4668 141.411 53.4699 141.368C53.4761 141.283 53.4792 141.169 53.4792 141.028H53.2792C53.2792 141.167 53.2762 141.275 53.2704 141.354C53.2675 141.393 53.2641 141.423 53.2603 141.446C53.2562 141.47 53.2528 141.477 53.2537 141.475L53.4326 141.565ZM53.4792 141.028V137.032H53.2792V141.028H53.4792ZM53.4792 137.032C53.4792 136.891 53.4761 136.777 53.4699 136.692C53.4668 136.649 53.4627 136.612 53.4575 136.581C53.4527 136.552 53.4455 136.521 53.4326 136.495L53.2537 136.585C53.2528 136.583 53.2562 136.59 53.2603 136.614C53.2641 136.637 53.2675 136.667 53.2704 136.706C53.2762 136.785 53.2792 136.893 53.2792 137.032H53.4792ZM53.4326 136.495C53.4055 136.441 53.3557 136.408 53.307 136.388C53.2572 136.367 53.1961 136.353 53.1276 136.345L53.1028 136.543C53.1622 136.551 53.2031 136.561 53.2294 136.572C53.2567 136.584 53.2568 136.591 53.2537 136.585L53.4326 136.495ZM53.1242 136.344L52.4642 136.284L52.4461 136.484L53.1061 136.544L53.1242 136.344ZM58.6526 134.536L58.5795 134.605L58.5842 134.609L58.6526 134.536ZM58.6526 133.576L58.5842 133.503L58.5819 133.505L58.6526 133.576ZM59.6006 133.576L59.5298 133.647L59.5322 133.649L59.6006 133.576ZM59.6006 134.536L59.5299 134.465L59.5299 134.465L59.6006 134.536ZM57.7286 136.384H57.6286V136.475L57.7195 136.484L57.7286 136.384ZM57.7286 136.06V135.96H57.6286V136.06H57.7286ZM59.6366 136.06H59.7366V135.96H59.6366V136.06ZM59.6726 141.52L59.762 141.475L59.762 141.475L59.6726 141.52ZM59.9006 141.616L59.8882 141.715L59.8897 141.715L59.9006 141.616ZM60.5606 141.688H60.6606V141.598L60.5714 141.589L60.5606 141.688ZM60.5606 142V142.1H60.6606V142H60.5606ZM57.7286 142H57.6286V142.1H57.7286V142ZM57.7286 141.688L57.7177 141.589L57.6286 141.598V141.688H57.7286ZM58.3886 141.616L58.3994 141.715L58.401 141.715L58.3886 141.616ZM58.6166 136.54L58.5272 136.585L58.5272 136.585L58.6166 136.54ZM58.3886 136.444L58.401 136.345L58.3976 136.344L58.3886 136.444ZM59.1326 134.616C58.9634 134.616 58.8286 134.564 58.721 134.463L58.5842 134.609C58.7326 134.748 58.9178 134.816 59.1326 134.816V134.616ZM58.7255 134.468C58.6254 134.361 58.5726 134.222 58.5726 134.044H58.3726C58.3726 134.266 58.4398 134.455 58.5796 134.604L58.7255 134.468ZM58.5726 134.044C58.5726 133.875 58.6246 133.745 58.7233 133.647L58.5819 133.505C58.4406 133.647 58.3726 133.829 58.3726 134.044H58.5726ZM58.721 133.649C58.8286 133.548 58.9634 133.496 59.1326 133.496V133.296C58.9178 133.296 58.7326 133.364 58.5842 133.503L58.721 133.649ZM59.1326 133.496C59.3019 133.496 59.4312 133.548 59.5299 133.647L59.6713 133.505C59.53 133.364 59.3473 133.296 59.1326 133.296V133.496ZM59.5322 133.649C59.638 133.748 59.6926 133.877 59.6926 134.044H59.8926C59.8926 133.827 59.8192 133.644 59.669 133.503L59.5322 133.649ZM59.6926 134.044C59.6926 134.221 59.6371 134.358 59.5299 134.465L59.6713 134.607C59.8201 134.458 59.8926 134.267 59.8926 134.044H59.6926ZM59.5299 134.465C59.4312 134.564 59.3019 134.616 59.1326 134.616V134.816C59.3473 134.816 59.53 134.748 59.6713 134.607L59.5299 134.465ZM57.8286 136.384V136.06H57.6286V136.384H57.8286ZM57.7286 136.16H59.6366V135.96H57.7286V136.16ZM59.5366 136.06V141.028H59.7366V136.06H59.5366ZM59.5366 141.028C59.5366 141.169 59.5396 141.283 59.5459 141.368C59.549 141.411 59.553 141.448 59.5583 141.479C59.5631 141.508 59.5702 141.539 59.5832 141.565L59.762 141.475C59.7629 141.477 59.7596 141.47 59.7554 141.446C59.7517 141.423 59.7482 141.393 59.7453 141.354C59.7396 141.275 59.7366 141.167 59.7366 141.028H59.5366ZM59.5832 141.565C59.6103 141.619 59.6601 141.652 59.7088 141.672C59.7586 141.693 59.8196 141.707 59.8882 141.715L59.913 141.517C59.8536 141.509 59.8126 141.499 59.7864 141.488C59.7591 141.476 59.7589 141.469 59.762 141.475L59.5832 141.565ZM59.8897 141.715L60.5497 141.787L60.5714 141.589L59.9114 141.517L59.8897 141.715ZM60.4606 141.688V142H60.6606V141.688H60.4606ZM60.5606 141.9H57.7286V142.1H60.5606V141.9ZM57.8286 142V141.688H57.6286V142H57.8286ZM57.7394 141.787L58.3994 141.715L58.3777 141.517L57.7177 141.589L57.7394 141.787ZM58.401 141.715C58.4696 141.707 58.5306 141.693 58.5804 141.672C58.6291 141.652 58.6789 141.619 58.706 141.565L58.5272 141.475C58.5303 141.469 58.5301 141.476 58.5028 141.488C58.4766 141.499 58.4356 141.509 58.3762 141.517L58.401 141.715ZM58.706 141.565C58.7189 141.539 58.7261 141.508 58.7309 141.479C58.7362 141.448 58.7402 141.411 58.7433 141.368C58.7496 141.283 58.7526 141.169 58.7526 141.028H58.5526C58.5526 141.167 58.5496 141.275 58.5439 141.354C58.541 141.393 58.5375 141.423 58.5338 141.446C58.5296 141.47 58.5262 141.477 58.5272 141.475L58.706 141.565ZM58.7526 141.028V137.032H58.5526V141.028H58.7526ZM58.7526 137.032C58.7526 136.891 58.7496 136.777 58.7433 136.692C58.7402 136.649 58.7362 136.612 58.7309 136.581C58.7261 136.552 58.7189 136.521 58.706 136.495L58.5272 136.585C58.5262 136.583 58.5296 136.59 58.5338 136.614C58.5375 136.637 58.541 136.667 58.5439 136.706C58.5496 136.785 58.5526 136.893 58.5526 137.032H58.7526ZM58.706 136.495C58.6789 136.441 58.6291 136.408 58.5804 136.388C58.5306 136.367 58.4696 136.353 58.401 136.345L58.3762 136.543C58.4356 136.551 58.4766 136.561 58.5028 136.572C58.5301 136.584 58.5303 136.591 58.5272 136.585L58.706 136.495ZM58.3976 136.344L57.7376 136.284L57.7195 136.484L58.3795 136.544L58.3976 136.344ZM68.0225 141.688H68.1225V141.598L68.0334 141.589L68.0225 141.688ZM68.0225 142V142.1H68.1225V142H68.0225ZM65.1905 142H65.0905V142.1H65.1905V142ZM65.1905 141.688L65.1797 141.589L65.0905 141.598V141.688H65.1905ZM65.8505 141.616L65.8614 141.715L65.8629 141.715L65.8505 141.616ZM66.0785 141.52L65.9891 141.475L65.9891 141.475L66.0785 141.52ZM65.8265 136.792L65.7474 136.853L65.7484 136.854L65.8265 136.792ZM64.1225 136.66L64.1673 136.749L64.1673 136.749L64.1225 136.66ZM63.2225 137.596L63.1369 137.544L63.1225 137.568V137.596H63.2225ZM63.2585 141.52L63.348 141.475L63.348 141.475L63.2585 141.52ZM63.4865 141.616L63.4741 141.715L63.4757 141.715L63.4865 141.616ZM64.1465 141.688H64.2465V141.598L64.1574 141.589L64.1465 141.688ZM64.1465 142V142.1H64.2465V142H64.1465ZM61.3145 142H61.2145V142.1H61.3145V142ZM61.3145 141.688L61.3037 141.589L61.2145 141.598V141.688H61.3145ZM61.9745 141.616L61.9854 141.715L61.9869 141.715L61.9745 141.616ZM62.2025 136.54L62.1131 136.585L62.1131 136.585L62.2025 136.54ZM61.9745 136.444L61.9869 136.345L61.9836 136.344L61.9745 136.444ZM61.3145 136.384H61.2145V136.475L61.3055 136.484L61.3145 136.384ZM61.3145 136.06V135.96H61.2145V136.06H61.3145ZM63.1625 136.06H63.2625V135.96H63.1625V136.06ZM63.1625 137.032H63.0625V137.332L63.2425 137.092L63.1625 137.032ZM64.1345 136.204L64.1768 136.295L64.1777 136.294L64.1345 136.204ZM66.6065 136.492L66.5311 136.558L66.5326 136.559L66.6065 136.492ZM67.1345 141.52L67.224 141.475L67.224 141.475L67.1345 141.52ZM67.3625 141.616L67.3501 141.715L67.3517 141.715L67.3625 141.616ZM67.9225 141.688V142H68.1225V141.688H67.9225ZM68.0225 141.9H65.1905V142.1H68.0225V141.9ZM65.2905 142V141.688H65.0905V142H65.2905ZM65.2014 141.787L65.8614 141.715L65.8397 141.517L65.1797 141.589L65.2014 141.787ZM65.8629 141.715C65.9315 141.707 65.9926 141.693 66.0423 141.672C66.091 141.652 66.1409 141.619 66.168 141.565L65.9891 141.475C65.9922 141.469 65.992 141.476 65.9647 141.488C65.9385 141.499 65.8975 141.509 65.8381 141.517L65.8629 141.715ZM66.168 141.565C66.1809 141.539 66.188 141.508 66.1929 141.479C66.1981 141.448 66.2021 141.411 66.2053 141.368C66.2115 141.283 66.2145 141.169 66.2145 141.028H66.0145C66.0145 141.167 66.0115 141.275 66.0058 141.354C66.0029 141.393 65.9995 141.423 65.9957 141.446C65.9915 141.47 65.9882 141.477 65.9891 141.475L66.168 141.565ZM66.2145 141.028V138.04H66.0145V141.028H66.2145ZM66.2145 138.04C66.2145 137.443 66.119 136.998 65.9046 136.73L65.7484 136.854C65.9181 137.066 66.0145 137.453 66.0145 138.04H66.2145ZM65.9056 136.731C65.6917 136.454 65.3843 136.32 64.9985 136.32V136.52C65.3328 136.52 65.5774 136.634 65.7475 136.853L65.9056 136.731ZM64.9985 136.32C64.7145 136.32 64.407 136.406 64.0778 136.571L64.1673 136.749C64.4781 136.594 64.7546 136.52 64.9985 136.52V136.32ZM64.0778 136.571C63.7343 136.742 63.422 137.072 63.1369 137.544L63.3082 137.648C63.5831 137.192 63.8708 136.898 64.1673 136.749L64.0778 136.571ZM63.1225 137.596V141.028H63.3225V137.596H63.1225ZM63.1225 141.028C63.1225 141.169 63.1255 141.283 63.1318 141.368C63.1349 141.411 63.139 141.448 63.1442 141.479C63.149 141.508 63.1562 141.539 63.1691 141.565L63.348 141.475C63.3489 141.477 63.3455 141.47 63.3414 141.446C63.3376 141.423 63.3341 141.393 63.3313 141.354C63.3255 141.275 63.3225 141.167 63.3225 141.028H63.1225ZM63.1691 141.565C63.1962 141.619 63.246 141.652 63.2947 141.672C63.3445 141.693 63.4055 141.707 63.4741 141.715L63.4989 141.517C63.4395 141.509 63.3986 141.499 63.3723 141.488C63.345 141.476 63.3449 141.469 63.348 141.475L63.1691 141.565ZM63.4757 141.715L64.1357 141.787L64.1574 141.589L63.4974 141.517L63.4757 141.715ZM64.0465 141.688V142H64.2465V141.688H64.0465ZM64.1465 141.9H61.3145V142.1H64.1465V141.9ZM61.4145 142V141.688H61.2145V142H61.4145ZM61.3254 141.787L61.9854 141.715L61.9637 141.517L61.3037 141.589L61.3254 141.787ZM61.9869 141.715C62.0555 141.707 62.1166 141.693 62.1663 141.672C62.215 141.652 62.2649 141.619 62.292 141.565L62.1131 141.475C62.1162 141.469 62.116 141.476 62.0887 141.488C62.0625 141.499 62.0215 141.509 61.9621 141.517L61.9869 141.715ZM62.292 141.565C62.3049 141.539 62.312 141.508 62.3169 141.479C62.3221 141.448 62.3261 141.411 62.3293 141.368C62.3355 141.283 62.3385 141.169 62.3385 141.028H62.1385C62.1385 141.167 62.1355 141.275 62.1298 141.354C62.1269 141.393 62.1235 141.423 62.1197 141.446C62.1155 141.47 62.1122 141.477 62.1131 141.475L62.292 141.565ZM62.3385 141.028V137.032H62.1385V141.028H62.3385ZM62.3385 137.032C62.3385 136.891 62.3355 136.777 62.3293 136.692C62.3261 136.649 62.3221 136.612 62.3169 136.581C62.312 136.552 62.3049 136.521 62.292 136.495L62.1131 136.585C62.1122 136.583 62.1155 136.59 62.1197 136.614C62.1235 136.637 62.1269 136.667 62.1298 136.706C62.1355 136.785 62.1385 136.893 62.1385 137.032H62.3385ZM62.292 136.495C62.2649 136.441 62.215 136.408 62.1663 136.388C62.1166 136.367 62.0555 136.353 61.9869 136.345L61.9621 136.543C62.0215 136.551 62.0625 136.561 62.0887 136.572C62.116 136.584 62.1162 136.591 62.1131 136.585L62.292 136.495ZM61.9836 136.344L61.3236 136.284L61.3055 136.484L61.9655 136.544L61.9836 136.344ZM61.4145 136.384V136.06H61.2145V136.384H61.4145ZM61.3145 136.16H63.1625V135.96H61.3145V136.16ZM63.0625 136.06V137.032H63.2625V136.06H63.0625ZM63.2425 137.092C63.5227 136.718 63.8345 136.454 64.1768 136.295L64.0922 136.113C63.7145 136.29 63.3784 136.578 63.0825 136.972L63.2425 137.092ZM64.1777 136.294C64.5337 136.124 64.887 136.04 65.2385 136.04V135.84C64.854 135.84 64.4714 135.932 64.0914 136.114L64.1777 136.294ZM65.2385 136.04C65.8083 136.04 66.2341 136.216 66.5311 136.558L66.682 136.426C66.339 136.032 65.8527 135.84 65.2385 135.84V136.04ZM66.5326 136.559C66.8385 136.895 66.9985 137.38 66.9985 138.028H67.1985C67.1985 137.348 67.0305 136.809 66.6805 136.425L66.5326 136.559ZM66.9985 138.028V141.028H67.1985V138.028H66.9985ZM66.9985 141.028C66.9985 141.169 67.0015 141.283 67.0078 141.368C67.0109 141.411 67.015 141.448 67.0202 141.479C67.025 141.508 67.0322 141.539 67.0451 141.565L67.224 141.475C67.2249 141.477 67.2215 141.47 67.2174 141.446C67.2136 141.423 67.2101 141.393 67.2073 141.354C67.2015 141.275 67.1985 141.167 67.1985 141.028H66.9985ZM67.0451 141.565C67.0722 141.619 67.122 141.652 67.1707 141.672C67.2205 141.693 67.2815 141.707 67.3501 141.715L67.3749 141.517C67.3155 141.509 67.2746 141.499 67.2483 141.488C67.221 141.476 67.2209 141.469 67.224 141.475L67.0451 141.565ZM67.3517 141.715L68.0117 141.787L68.0334 141.589L67.3734 141.517L67.3517 141.715ZM73.6048 144.16L73.5468 144.079L73.5452 144.08L73.6048 144.16ZM69.6568 144.196L69.717 144.116L69.716 144.115L69.6568 144.196ZM68.9968 143.008L68.9769 142.91L68.894 142.927L68.8968 143.011L68.9968 143.008ZM69.8848 142.828L69.9845 142.835L69.9941 142.704L69.8649 142.73L69.8848 142.828ZM70.2328 143.884L70.3035 143.813L70.3035 143.813L70.2328 143.884ZM73.1248 143.956L73.0736 143.87L73.0728 143.871L73.1248 143.956ZM73.3648 142.252L73.3053 142.332L73.3053 142.332L73.3648 142.252ZM69.7408 141.676L69.6676 141.744L69.6688 141.745L69.7408 141.676ZM69.5848 140.26L69.4982 140.21L69.4975 140.211L69.5848 140.26ZM70.1488 139.648L70.2103 139.727L70.3379 139.627L70.1917 139.558L70.1488 139.648ZM69.3688 138.988L69.2859 139.044L69.2866 139.045L69.3688 138.988ZM69.3688 136.828L69.287 136.771L69.2866 136.771L69.3688 136.828ZM70.1848 136.168L70.2242 136.26L70.2252 136.259L70.1848 136.168ZM72.7048 136.18L72.6626 136.271L72.6992 136.288L72.7374 136.275L72.7048 136.18ZM74.4448 135.58L74.5437 135.565L74.5262 135.446L74.4122 135.485L74.4448 135.58ZM74.5768 136.48V136.58H74.6925L74.6757 136.465L74.5768 136.48ZM73.1728 136.48V136.38H72.9054L73.1072 136.555L73.1728 136.48ZM73.6048 137.08L73.513 137.12L73.5142 137.122L73.6048 137.08ZM73.4608 139L73.3789 138.942L73.3779 138.944L73.4608 139ZM72.6568 139.672L72.6962 139.764L72.698 139.763L72.6568 139.672ZM70.9288 139.864L70.9164 139.963L70.9164 139.963L70.9288 139.864ZM70.5568 139.792L70.5825 139.695L70.5383 139.684L70.5004 139.709L70.5568 139.792ZM70.1728 140.164L70.0879 140.111L70.0856 140.115L70.1728 140.164ZM70.2328 140.944L70.1677 141.02L70.1703 141.022L70.2328 140.944ZM73.8088 141.496L73.7459 141.574L73.7459 141.574L73.8088 141.496ZM72.1168 139.36L72.0705 139.271L72.0689 139.272L72.1168 139.36ZM72.5608 138.88L72.6502 138.925L72.6508 138.923L72.5608 138.88ZM72.5608 136.96L72.4707 137.003L72.4713 137.005L72.5608 136.96ZM72.1168 136.468L72.0689 136.556L72.0705 136.557L72.1168 136.468ZM70.2808 136.96L70.3702 137.005L70.3708 137.003L70.2808 136.96ZM70.2808 138.88L70.1907 138.923L70.1913 138.925L70.2808 138.88ZM70.7248 139.36L70.771 139.271L70.771 139.271L70.7248 139.36ZM74.2128 142.696C74.2128 143.308 73.9894 143.763 73.5468 144.079L73.6628 144.241C74.1642 143.885 74.4128 143.364 74.4128 142.696H74.2128ZM73.5452 144.08C73.1046 144.406 72.4804 144.576 71.6608 144.576V144.776C72.5051 144.776 73.177 144.602 73.6643 144.24L73.5452 144.08ZM71.6608 144.576C70.7565 144.576 70.1151 144.417 69.717 144.116L69.5965 144.276C70.0465 144.615 70.7411 144.776 71.6608 144.776V144.576ZM69.716 144.115C69.314 143.82 69.1116 143.451 69.0967 143.005L68.8968 143.011C68.914 143.525 69.1516 143.948 69.5975 144.277L69.716 144.115ZM69.0166 143.106L69.9046 142.926L69.8649 142.73L68.9769 142.91L69.0166 143.106ZM69.785 142.821C69.7514 143.284 69.8738 143.666 70.1621 143.955L70.3035 143.813C70.0638 143.574 69.9542 143.252 69.9845 142.835L69.785 142.821ZM70.1621 143.955C70.4629 144.256 70.973 144.392 71.6608 144.392V144.192C70.9886 144.192 70.5467 144.056 70.3035 143.813L70.1621 143.955ZM71.6608 144.392C72.2799 144.392 72.7879 144.278 73.1768 144.041L73.0728 143.871C72.7256 144.082 72.2576 144.192 71.6608 144.192V144.392ZM73.176 144.042C73.5817 143.8 73.7888 143.44 73.7888 142.972H73.5888C73.5888 143.368 73.4198 143.664 73.0736 143.87L73.176 144.042ZM73.7888 142.972C73.7888 142.627 73.6708 142.354 73.4243 142.172L73.3053 142.332C73.4908 142.47 73.5888 142.677 73.5888 142.972H73.7888ZM73.4243 142.172C73.1817 141.992 72.7985 141.912 72.2968 141.912V142.112C72.7871 142.112 73.1159 142.192 73.3053 142.332L73.4243 142.172ZM72.2968 141.912H70.8688V142.112H72.2968V141.912ZM70.8688 141.912C70.3416 141.912 70.0001 141.801 69.8128 141.607L69.6688 141.745C69.9134 141.999 70.324 142.112 70.8688 142.112V141.912ZM69.814 141.608C69.6127 141.392 69.5168 141.159 69.5168 140.908H69.3168C69.3168 141.217 69.4368 141.496 69.6676 141.744L69.814 141.608ZM69.5168 140.908C69.5168 140.693 69.5685 140.494 69.672 140.309L69.4975 140.211C69.3771 140.426 69.3168 140.659 69.3168 140.908H69.5168ZM69.6714 140.31C69.7831 140.116 69.9611 139.922 70.2103 139.727L70.0872 139.569C69.8244 139.774 69.6264 139.988 69.4982 140.21L69.6714 140.31ZM70.1917 139.558C69.8873 139.413 69.6409 139.204 69.4509 138.931L69.2866 139.045C69.4967 139.348 69.7703 139.579 70.1059 139.738L70.1917 139.558ZM69.4516 138.932C69.2646 138.655 69.1688 138.319 69.1688 137.92H68.9688C68.9688 138.353 69.073 138.729 69.2859 139.044L69.4516 138.932ZM69.1688 137.92C69.1688 137.495 69.2652 137.152 69.4509 136.885L69.2866 136.771C69.0724 137.08 68.9688 137.465 68.9688 137.92H69.1688ZM69.4506 136.885C69.6478 136.605 69.905 136.397 70.2242 136.26L70.1454 136.076C69.7925 136.227 69.5058 136.459 69.287 136.771L69.4506 136.885ZM70.2252 136.259C70.5552 136.114 70.9212 136.04 71.3248 136.04V135.84C70.8963 135.84 70.5024 135.918 70.1444 136.077L70.2252 136.259ZM71.3248 136.04H71.5288V135.84H71.3248V136.04ZM71.5288 136.04C71.9565 136.04 72.3338 136.118 72.6626 136.271L72.747 136.089C72.3878 135.922 71.981 135.84 71.5288 135.84V136.04ZM72.7374 136.275L74.4774 135.675L74.4122 135.485L72.6722 136.085L72.7374 136.275ZM74.3458 135.595L74.4778 136.495L74.6757 136.465L74.5437 135.565L74.3458 135.595ZM74.5768 136.38H73.1728V136.58H74.5768V136.38ZM73.1072 136.555C73.2791 136.705 73.4145 136.892 73.513 137.12L73.6965 137.04C73.587 136.788 73.4345 136.575 73.2384 136.405L73.1072 136.555ZM73.5142 137.122C73.6188 137.347 73.6728 137.612 73.6728 137.92H73.8728C73.8728 137.588 73.8147 137.293 73.6954 137.038L73.5142 137.122ZM73.6728 137.92C73.6728 138.327 73.5732 138.666 73.379 138.943L73.5426 139.057C73.7644 138.742 73.8728 138.361 73.8728 137.92H73.6728ZM73.3779 138.944C73.1886 139.224 72.9353 139.436 72.6156 139.581L72.698 139.763C73.0503 139.604 73.3329 139.368 73.5436 139.056L73.3779 138.944ZM72.6174 139.58C72.2954 139.718 71.9331 139.788 71.5288 139.788V139.988C71.9565 139.988 72.3461 139.914 72.6962 139.764L72.6174 139.58ZM71.5288 139.788H71.3248V139.988H71.5288V139.788ZM71.3248 139.788C71.1927 139.788 71.0649 139.78 70.9412 139.765L70.9164 139.963C71.0487 139.98 71.1849 139.988 71.3248 139.988V139.788ZM70.9412 139.765C70.8175 139.749 70.698 139.726 70.5825 139.695L70.531 139.889C70.6556 139.922 70.784 139.947 70.9164 139.963L70.9412 139.765ZM70.5004 139.709C70.3174 139.834 70.1777 139.967 70.088 140.111L70.2576 140.217C70.3279 140.105 70.4442 139.99 70.6131 139.875L70.5004 139.709ZM70.0856 140.115C70.0059 140.257 69.9648 140.405 69.9648 140.56H70.1648C70.1648 140.443 70.1957 140.327 70.2599 140.213L70.0856 140.115ZM69.9648 140.56C69.9648 140.746 70.0315 140.903 70.1677 141.02L70.2979 140.868C70.2101 140.793 70.1648 140.694 70.1648 140.56H69.9648ZM70.1703 141.022C70.3165 141.139 70.5319 141.188 70.7968 141.188V140.988C70.5496 140.988 70.3891 140.941 70.2953 140.866L70.1703 141.022ZM70.7968 141.188H72.3568V140.988H70.7968V141.188ZM72.3568 141.188C72.9761 141.188 73.4343 141.321 73.7459 141.574L73.8717 141.418C73.5113 141.127 73.0014 140.988 72.3568 140.988V141.188ZM73.7459 141.574C74.0532 141.823 74.2128 142.191 74.2128 142.696H74.4128C74.4128 142.145 74.2363 141.713 73.8717 141.418L73.7459 141.574ZM71.5288 139.604C71.7602 139.604 71.9729 139.552 72.1647 139.448L72.0689 139.272C71.9087 139.36 71.7294 139.404 71.5288 139.404V139.604ZM72.163 139.449C72.3693 139.341 72.5308 139.164 72.6502 138.925L72.4713 138.835C72.3668 139.044 72.2323 139.187 72.0705 139.271L72.163 139.449ZM72.6508 138.923C72.7721 138.672 72.8288 138.335 72.8288 137.92H72.6288C72.6288 138.321 72.5735 138.624 72.4707 138.837L72.6508 138.923ZM72.8288 137.92C72.8288 137.497 72.7723 137.159 72.6502 136.915L72.4713 137.005C72.5733 137.209 72.6288 137.511 72.6288 137.92H72.8288ZM72.6508 136.917C72.5318 136.67 72.3703 136.487 72.163 136.379L72.0705 136.557C72.2312 136.641 72.3658 136.786 72.4707 137.003L72.6508 136.917ZM72.1647 136.38C71.9729 136.276 71.7602 136.224 71.5288 136.224V136.424C71.7294 136.424 71.9087 136.468 72.0689 136.556L72.1647 136.38ZM71.5288 136.224H71.3248V136.424H71.5288V136.224ZM71.3248 136.224C71.0934 136.224 70.8774 136.276 70.6785 136.379L70.771 136.557C70.9402 136.468 71.1242 136.424 71.3248 136.424V136.224ZM70.6785 136.379C70.4712 136.487 70.3098 136.67 70.1907 136.917L70.3708 137.003C70.4758 136.786 70.6103 136.641 70.771 136.557L70.6785 136.379ZM70.1913 136.915C70.0693 137.159 70.0128 137.497 70.0128 137.92H70.2128C70.2128 137.511 70.2683 137.209 70.3702 137.005L70.1913 136.915ZM70.0128 137.92C70.0128 138.335 70.0695 138.672 70.1907 138.923L70.3708 138.837C70.2681 138.624 70.2128 138.321 70.2128 137.92H70.0128ZM70.1913 138.925C70.3108 139.164 70.4723 139.341 70.6785 139.449L70.771 139.271C70.6093 139.187 70.4748 139.044 70.3702 138.835L70.1913 138.925ZM70.6785 139.449C70.8774 139.552 71.0934 139.604 71.3248 139.604V139.404C71.1242 139.404 70.9402 139.36 70.771 139.271L70.6785 139.449ZM71.3248 139.604H71.5288V139.404H71.3248V139.604ZM85.06 142L84.9641 142.028L84.9853 142.1H85.06V142ZM83.02 135.112L83.1159 135.084L83.0194 134.758L82.924 135.084L83.02 135.112ZM81.004 142V142.1H81.0789L81.1 142.028L81.004 142ZM80.212 142L80.1148 142.023L80.1333 142.1H80.212V142ZM78.46 134.74L78.5572 134.717L78.5572 134.717L78.46 134.74ZM78.328 134.32L78.4112 134.265L78.4112 134.265L78.328 134.32ZM78.088 134.224L78.1004 134.125L78.0978 134.124L78.088 134.224ZM77.476 134.164H77.376V134.255L77.4662 134.264L77.476 134.164ZM77.476 133.84V133.74H77.376V133.84H77.476ZM80.272 133.84H80.372V133.74H80.272V133.84ZM80.272 134.164L80.2818 134.264L80.372 134.255V134.164H80.272ZM79.66 134.224L79.6502 134.124L79.6476 134.125L79.66 134.224ZM79.444 134.32L79.3484 134.288L79.3459 134.3L79.444 134.32ZM79.516 134.74L79.4186 134.763L79.4187 134.763L79.516 134.74ZM80.944 140.74L80.8467 140.763L80.9344 141.132L81.04 140.768L80.944 140.74ZM82.948 133.84V133.74H82.8729L82.852 133.812L82.948 133.84ZM83.692 133.84L83.7879 133.812L83.7667 133.74H83.692V133.84ZM85.72 140.692L85.6241 140.72L85.7297 141.077L85.8172 140.716L85.72 140.692ZM87.16 134.74L87.0634 134.714L87.0628 134.716L87.16 134.74ZM87.22 134.32L87.1251 134.352L87.1286 134.362L87.1343 134.371L87.22 134.32ZM87.016 134.224L87.0292 134.125L87.0256 134.124L87.016 134.224ZM86.392 134.164H86.292V134.255L86.3824 134.264L86.392 134.164ZM86.392 133.84V133.74H86.292V133.84H86.392ZM88.576 133.84H88.676V133.74H88.576V133.84ZM88.576 134.164L88.5858 134.264L88.676 134.255V134.164H88.576ZM87.964 134.224L87.9542 134.124L87.9508 134.125L87.964 134.224ZM87.736 134.32L87.8144 134.383L87.8192 134.375L87.736 134.32ZM87.592 134.74L87.4953 134.714L87.4948 134.717L87.592 134.74ZM85.84 142V142.1H85.9187L85.9372 142.023L85.84 142ZM85.1559 141.972L83.1159 135.084L82.9241 135.14L84.9641 142.028L85.1559 141.972ZM82.924 135.084L80.908 141.972L81.1 142.028L83.116 135.14L82.924 135.084ZM81.004 141.9H80.212V142.1H81.004V141.9ZM80.3092 141.977L78.5572 134.717L78.3628 134.763L80.1148 142.023L80.3092 141.977ZM78.5572 134.717C78.529 134.6 78.5034 134.504 78.4804 134.431C78.4586 134.362 78.4361 134.302 78.4112 134.265L78.2448 134.375C78.2519 134.386 78.2674 134.42 78.2896 134.491C78.3106 134.558 78.335 134.648 78.3628 134.763L78.5572 134.717ZM78.4112 134.265C78.3797 134.217 78.3312 134.187 78.2811 134.167C78.2303 134.147 78.1691 134.133 78.1004 134.125L78.0756 134.323C78.1349 134.331 78.1777 134.341 78.2069 134.353C78.2368 134.365 78.2443 134.375 78.2448 134.375L78.4112 134.265ZM78.0978 134.124L77.4858 134.064L77.4662 134.264L78.0782 134.324L78.0978 134.124ZM77.576 134.164V133.84H77.376V134.164H77.576ZM77.476 133.94H80.272V133.74H77.476V133.94ZM80.172 133.84V134.164H80.372V133.84H80.172ZM80.2622 134.064L79.6502 134.124L79.6698 134.324L80.2818 134.264L80.2622 134.064ZM79.6476 134.125C79.5792 134.133 79.5182 134.147 79.4694 134.169C79.4218 134.19 79.3699 134.226 79.3491 134.288L79.5389 134.352C79.5341 134.366 79.5262 134.362 79.5506 134.351C79.5738 134.341 79.6128 134.331 79.6724 134.323L79.6476 134.125ZM79.3459 134.3C79.3409 134.326 79.3423 134.354 79.3444 134.378C79.3467 134.404 79.3512 134.436 79.3574 134.472C79.3699 134.545 79.3904 134.642 79.4186 134.763L79.6134 134.717C79.5856 134.598 79.5661 134.505 79.5546 134.438C79.5488 134.404 79.5453 134.379 79.5436 134.36C79.5417 134.338 79.5431 134.334 79.5421 134.34L79.3459 134.3ZM79.4187 134.763L80.8467 140.763L81.0413 140.717L79.6133 134.717L79.4187 134.763ZM81.04 140.768L83.044 133.868L82.852 133.812L80.848 140.712L81.04 140.768ZM82.948 133.94H83.692V133.74H82.948V133.94ZM83.5961 133.868L85.6241 140.72L85.8159 140.664L83.7879 133.812L83.5961 133.868ZM85.8172 140.716L87.2572 134.764L87.0628 134.716L85.6228 140.668L85.8172 140.716ZM87.2566 134.766C87.289 134.644 87.3112 134.545 87.322 134.469C87.3274 134.431 87.3304 134.397 87.3297 134.367C87.3291 134.34 87.3257 134.302 87.3058 134.269L87.1343 134.371C87.1263 134.358 87.1294 134.352 87.1298 134.371C87.1301 134.386 87.1286 134.409 87.124 134.441C87.1148 134.505 87.095 134.596 87.0634 134.714L87.2566 134.766ZM87.3149 134.288C87.2948 134.228 87.2463 134.192 87.1996 134.17C87.1524 134.147 87.094 134.134 87.0292 134.125L87.0028 134.323C87.058 134.33 87.0936 134.341 87.1144 134.35C87.1357 134.36 87.1292 134.364 87.1251 134.352L87.3149 134.288ZM87.0256 134.124L86.4016 134.064L86.3824 134.264L87.0064 134.324L87.0256 134.124ZM86.492 134.164V133.84H86.292V134.164H86.492ZM86.392 133.94H88.576V133.74H86.392V133.94ZM88.476 133.84V134.164H88.676V133.84H88.476ZM88.5662 134.064L87.9542 134.124L87.9738 134.324L88.5858 134.264L88.5662 134.064ZM87.9508 134.125C87.8857 134.134 87.8272 134.147 87.7782 134.168C87.7295 134.188 87.6834 134.219 87.6528 134.265L87.8192 134.375C87.8206 134.373 87.8285 134.364 87.8558 134.352C87.8828 134.341 87.9223 134.33 87.9772 134.323L87.9508 134.125ZM87.6579 134.258C87.6417 134.278 87.6285 134.304 87.6176 134.328C87.606 134.354 87.5939 134.386 87.5814 134.423C87.5563 134.496 87.5276 134.593 87.4954 134.714L87.6886 134.766C87.7204 134.647 87.7477 134.554 87.7706 134.487C87.7821 134.454 87.792 134.428 87.8004 134.409C87.8095 134.389 87.8143 134.382 87.8141 134.382L87.6579 134.258ZM87.4948 134.717L85.7428 141.977L85.9372 142.023L87.6892 134.763L87.4948 134.717ZM85.84 141.9H85.06V142.1H85.84V141.9ZM93.5554 140.632L93.6521 140.658L93.6773 140.563L93.5827 140.536L93.5554 140.632ZM92.7394 141.784L92.6906 141.697L92.6898 141.697L92.7394 141.784ZM89.4394 141.316L89.3617 141.379L89.3621 141.379L89.4394 141.316ZM89.4154 136.756L89.4939 136.818L89.4943 136.817L89.4154 136.756ZM92.4394 136.204L92.3947 136.293L92.3955 136.294L92.4394 136.204ZM93.2914 136.984L93.2059 137.036L93.2067 137.037L93.2914 136.984ZM93.5434 139.024V139.124H93.6269L93.6418 139.042L93.5434 139.024ZM89.8594 139.024V138.924H89.7594V139.024H89.8594ZM90.2434 141.196L90.1613 141.253L90.1628 141.255L90.2434 141.196ZM92.4274 141.448L92.3662 141.369L92.365 141.37L92.4274 141.448ZM92.9194 140.452L92.9467 140.356L92.8395 140.325L92.8208 140.435L92.9194 140.452ZM90.2074 136.864L90.1234 136.81L90.1234 136.81L90.2074 136.864ZM89.8594 138.64H89.7594V138.74H89.8594V138.64ZM92.5594 138.64V138.74H92.6594V138.64H92.5594ZM92.5594 138.604L92.4606 138.589L92.4594 138.596V138.604H92.5594ZM92.5954 138.304L92.6951 138.312L92.6951 138.312L92.5954 138.304ZM92.2354 136.732L92.1615 136.799L92.1626 136.8L92.2354 136.732ZM93.4588 140.606C93.32 141.131 93.0618 141.489 92.6906 141.697L92.7883 141.871C93.2171 141.631 93.5029 141.221 93.6521 140.658L93.4588 140.606ZM92.6898 141.697C92.3139 141.912 91.8952 142.02 91.4314 142.02V142.22C91.9277 142.22 92.381 142.104 92.7891 141.871L92.6898 141.697ZM91.4314 142.02C90.5643 142.02 89.9326 141.759 89.5167 141.253L89.3621 141.379C89.8262 141.945 90.5226 142.22 91.4314 142.22V142.02ZM89.5172 141.253C89.0953 140.732 88.8794 140.032 88.8794 139.144H88.6794C88.6794 140.064 88.9035 140.812 89.3617 141.379L89.5172 141.253ZM88.8794 139.144V138.904H88.6794V139.144H88.8794ZM88.8794 138.904C88.8794 138.023 89.0877 137.332 89.4939 136.818L89.337 136.694C88.8952 137.252 88.6794 137.993 88.6794 138.904H88.8794ZM89.4943 136.817C89.896 136.302 90.4803 136.04 91.2634 136.04V135.84C90.4306 135.84 89.7829 136.122 89.3366 136.695L89.4943 136.817ZM91.2634 136.04C91.6815 136.04 92.0579 136.125 92.3947 136.293L92.4842 136.115C92.117 135.931 91.7094 135.84 91.2634 135.84V136.04ZM92.3955 136.294C92.7382 136.461 93.0078 136.708 93.2059 137.036L93.377 136.932C93.1591 136.572 92.8607 136.299 92.4834 136.114L92.3955 136.294ZM93.2067 137.037C93.4104 137.362 93.5154 137.77 93.5154 138.268H93.7154C93.7154 137.742 93.6044 137.294 93.3761 136.931L93.2067 137.037ZM93.5154 138.268C93.5154 138.501 93.4921 138.747 93.4451 139.006L93.6418 139.042C93.6908 138.773 93.7154 138.515 93.7154 138.268H93.5154ZM93.5434 138.924H89.8594V139.124H93.5434V138.924ZM89.7594 139.024V139.384H89.9594V139.024H89.7594ZM89.7594 139.384C89.7594 140.229 89.8873 140.859 90.1613 141.253L90.3255 141.139C90.0876 140.797 89.9594 140.219 89.9594 139.384H89.7594ZM90.1628 141.255C90.4512 141.648 90.9103 141.836 91.5154 141.836V141.636C90.9525 141.636 90.5637 141.464 90.3241 141.137L90.1628 141.255ZM91.5154 141.836C91.9015 141.836 92.2289 141.735 92.4899 141.526L92.365 141.37C92.146 141.545 91.8654 141.636 91.5154 141.636V141.836ZM92.4887 141.527C92.7647 141.313 92.936 140.953 93.018 140.469L92.8208 140.435C92.7429 140.895 92.5862 141.199 92.3662 141.369L92.4887 141.527ZM92.8922 140.548L93.5282 140.728L93.5827 140.536L92.9467 140.356L92.8922 140.548ZM91.2634 136.224C90.7616 136.224 90.3759 136.418 90.1234 136.81L90.2915 136.918C90.503 136.59 90.8213 136.424 91.2634 136.424V136.224ZM90.1234 136.81C89.8751 137.195 89.7594 137.812 89.7594 138.64H89.9594C89.9594 137.82 90.0758 137.253 90.2915 136.918L90.1234 136.81ZM89.8594 138.74H92.5594V138.54H89.8594V138.74ZM92.6594 138.64V138.604H92.4594V138.64H92.6594ZM92.6583 138.619C92.6746 138.513 92.6869 138.411 92.6951 138.312L92.4958 138.296C92.488 138.389 92.4763 138.487 92.4606 138.589L92.6583 138.619ZM92.6951 138.312C92.7033 138.206 92.7074 138.111 92.7074 138.028H92.5074C92.5074 138.105 92.5036 138.194 92.4957 138.296L92.6951 138.312ZM92.7074 138.028C92.7074 137.418 92.5821 136.955 92.3083 136.664L92.1626 136.8C92.3847 137.037 92.5074 137.438 92.5074 138.028H92.7074ZM92.3093 136.665C92.0406 136.37 91.6888 136.224 91.2634 136.224V136.424C91.638 136.424 91.9343 136.55 92.1615 136.799L92.3093 136.665ZM94.5801 133.444H94.4801V133.535L94.5711 133.544L94.5801 133.444ZM94.5801 133.12V133.02H94.4801V133.12H94.5801ZM96.4881 133.12H96.5881V133.02H96.4881V133.12ZM96.4881 136.924H96.3881V137.251L96.571 136.98L96.4881 136.924ZM97.2801 136.18L97.3258 136.269L97.3277 136.268L97.2801 136.18ZM99.8361 136.72L99.7551 136.779L99.7557 136.779L99.8361 136.72ZM99.7521 141.316L99.6748 141.253L99.6743 141.253L99.7521 141.316ZM96.3921 141.508L96.4635 141.438L96.4095 141.383L96.3425 141.421L96.3921 141.508ZM96.0801 141.748L96.1508 141.819L96.1508 141.819L96.0801 141.748ZM95.7921 142.06V142.16H95.8381L95.8681 142.125L95.7921 142.06ZM95.5041 142.06H95.4041V142.16H95.5041V142.06ZM95.4681 133.6L95.5576 133.555L95.5576 133.555L95.4681 133.6ZM95.2401 133.504L95.2525 133.405L95.2492 133.404L95.2401 133.504ZM97.3041 136.612L97.2534 136.526L97.2523 136.526L97.3041 136.612ZM96.4881 137.584L96.4014 137.534L96.3881 137.557V137.584H96.4881ZM96.4881 141.016H96.3881V141.049L96.4073 141.075L96.4881 141.016ZM98.9841 141.136L99.0702 141.187L99.0706 141.186L98.9841 141.136ZM99.0081 136.9L98.9229 136.952L98.9234 136.953L99.0081 136.9ZM94.6801 133.444V133.12H94.4801V133.444H94.6801ZM94.5801 133.22H96.4881V133.02H94.5801V133.22ZM96.3881 133.12V136.924H96.5881V133.12H96.3881ZM96.571 136.98C96.7959 136.646 97.0481 136.412 97.3258 136.269L97.2344 136.091C96.9202 136.252 96.6444 136.514 96.4052 136.868L96.571 136.98ZM97.3277 136.268C97.6087 136.116 97.9123 136.04 98.2401 136.04V135.84C97.8799 135.84 97.5435 135.924 97.2326 136.092L97.3277 136.268ZM98.2401 136.04C98.8987 136.04 99.3994 136.287 99.7551 136.779L99.9172 136.661C99.5208 136.113 98.9575 135.84 98.2401 135.84V136.04ZM99.7557 136.779C100.122 137.276 100.312 137.98 100.312 138.904H100.512C100.512 137.956 100.318 137.204 99.9166 136.661L99.7557 136.779ZM100.312 138.904V139.144H100.512V138.904H100.312ZM100.312 139.144C100.312 140.04 100.096 140.739 99.6748 141.253L99.8294 141.379C100.288 140.821 100.512 140.072 100.512 139.144H100.312ZM99.6743 141.253C99.264 141.762 98.6866 142.02 97.9281 142.02V142.22C98.7376 142.22 99.3762 141.942 99.83 141.379L99.6743 141.253ZM97.9281 142.02C97.3283 142.02 96.8429 141.825 96.4635 141.438L96.3207 141.578C96.7414 142.007 97.28 142.22 97.9281 142.22V142.02ZM96.3425 141.421C96.2224 141.49 96.1114 141.575 96.0094 141.677L96.1508 141.819C96.2409 141.729 96.3379 141.654 96.4417 141.595L96.3425 141.421ZM96.0094 141.677C95.9115 141.775 95.8137 141.881 95.7162 141.995L95.8681 142.125C95.9625 142.015 96.0568 141.913 96.1508 141.819L96.0094 141.677ZM95.7921 141.96H95.5041V142.16H95.7921V141.96ZM95.6041 142.06V134.092H95.4041V142.06H95.6041ZM95.6041 134.092C95.6041 133.951 95.6011 133.837 95.5949 133.752C95.5917 133.709 95.5877 133.672 95.5825 133.641C95.5776 133.612 95.5705 133.581 95.5576 133.555L95.3787 133.645C95.3778 133.643 95.3811 133.65 95.3853 133.674C95.3891 133.697 95.3925 133.727 95.3954 133.766C95.4011 133.845 95.4041 133.953 95.4041 134.092H95.6041ZM95.5576 133.555C95.5305 133.501 95.4806 133.468 95.4319 133.448C95.3821 133.427 95.3211 133.413 95.2525 133.405L95.2277 133.603C95.2871 133.611 95.3281 133.621 95.3543 133.632C95.3816 133.644 95.3818 133.651 95.3787 133.645L95.5576 133.555ZM95.2492 133.404L94.5892 133.344L94.5711 133.544L95.2311 133.604L95.2492 133.404ZM98.0841 136.272C97.8141 136.272 97.5367 136.359 97.2534 136.526L97.3548 136.698C97.6156 136.545 97.8582 136.472 98.0841 136.472V136.272ZM97.2523 136.526C96.9663 136.7 96.6839 137.042 96.4014 137.534L96.5749 137.634C96.8523 137.15 97.114 136.844 97.356 136.698L97.2523 136.526ZM96.3881 137.584V141.016H96.5881V137.584H96.3881ZM96.4073 141.075C96.7695 141.572 97.2551 141.824 97.8561 141.824V141.624C97.3211 141.624 96.8947 141.404 96.5689 140.957L96.4073 141.075ZM97.8561 141.824C98.4055 141.824 98.8173 141.614 99.0702 141.187L98.8981 141.085C98.6869 141.442 98.3468 141.624 97.8561 141.624V141.824ZM99.0706 141.186C99.3148 140.765 99.4321 140.202 99.4321 139.504H99.2321C99.2321 140.182 99.1175 140.707 98.8976 141.086L99.0706 141.186ZM99.4321 139.504V138.544H99.2321V139.504H99.4321ZM99.4321 138.544C99.4321 137.787 99.3242 137.215 99.0928 136.847L98.9234 136.953C99.1241 137.273 99.2321 137.797 99.2321 138.544H99.4321ZM99.0934 136.848C98.8599 136.467 98.5203 136.272 98.0841 136.272V136.472C98.448 136.472 98.7244 136.629 98.9229 136.952L99.0934 136.848Z" fill="black"/>
<g clip-path="url(#clip0_403_317)">
<path d="M55 0C50.8594 0 47.1086 1.67972 44.3937 4.39524C41.6789 7.10995 40 10.8588 40 14.9996C40 19.1404 41.6789 22.8901 44.3937 25.6039C47.1094 28.3195 50.8594 29.9992 55 29.9992C59.1406 29.9992 62.8914 28.3195 65.6063 25.6039C68.3211 22.8901 70 19.1404 70 14.9996C70 10.8588 68.3211 7.10914 65.6063 4.39524C62.8914 1.67972 59.1406 0 55 0ZM45.0562 5.0538C47.6001 2.50982 51.1157 0.936611 55 0.936611C58.8843 0.936611 62.3999 2.50982 64.9438 5.0538C67.4886 7.59858 69.0625 11.1149 69.0625 14.9996C69.0625 18.8843 67.4886 22.4006 64.9438 24.9454C62.3999 27.4894 58.8843 29.0626 55 29.0626C51.1157 29.0626 47.6001 27.4894 45.0562 24.9454C42.5114 22.4006 40.9375 18.8843 40.9375 14.9996C40.9375 11.1149 42.5114 7.59858 45.0562 5.0538Z" fill="black"/>
<path d="M43.4058 24.5137C44.8039 26.2153 46.5682 27.6032 48.5783 28.5577C50.5257 29.4821 52.7035 30 55 30C57.2965 30 59.4743 29.4829 61.4217 28.5577C63.444 27.5975 65.2181 26.1983 66.6195 24.4828L66.6203 24.4836C66.7839 24.2836 66.7537 23.9885 66.5535 23.825C66.5039 23.7844 66.4478 23.7559 66.39 23.7389C64.6053 23.0136 62.7458 22.4543 60.8301 22.0786C58.9396 21.7087 56.9906 21.5144 55 21.5144C53.0094 21.5144 51.0604 21.7079 49.1699 22.0786C47.2388 22.4567 45.3646 23.0226 43.5669 23.7559L43.7427 24.1876L43.5653 23.7543C43.3252 23.8519 43.2105 24.1259 43.3089 24.3649C43.3317 24.4218 43.3651 24.4722 43.4058 24.5137ZM48.9771 27.7129C47.2762 26.9056 45.7633 25.7674 44.5215 24.3811C46.071 23.7885 47.6831 23.3234 49.3481 22.9974C51.1776 22.6388 53.0664 22.4518 54.9992 22.4518C56.932 22.4518 58.8208 22.6396 60.6502 22.9974C62.3153 23.3234 63.9282 23.7885 65.4769 24.3811C64.235 25.7674 62.7222 26.9056 61.0213 27.7129C59.1968 28.5788 57.1549 29.0634 54.9984 29.0634C52.8418 29.0634 50.8016 28.5788 48.9771 27.7129Z" fill="black"/>
<path d="M44.5223 5.61885C45.7642 4.23264 47.277 3.09439 48.9779 2.28705C50.8024 1.42118 52.8442 0.936611 55.0008 0.936611C57.1574 0.936611 59.1992 1.42118 61.0238 2.28705C62.7246 3.09439 64.2375 4.23264 65.4793 5.61885C63.9298 6.21155 62.3177 6.6766 60.6527 7.00263C58.8232 7.36117 56.9344 7.54817 55.0016 7.54817C53.0688 7.54817 51.18 7.36036 49.3506 7.00263C47.6839 6.6766 46.071 6.21155 44.5223 5.61885ZM48.5783 1.44232C46.5682 2.396 44.8039 3.78466 43.4058 5.48633C43.3651 5.52779 43.3317 5.5782 43.3081 5.63511C43.2104 5.87496 43.3252 6.14813 43.5644 6.2457L43.7419 5.81235L43.5661 6.24407C45.3638 6.97824 47.2379 7.54329 49.1691 7.92135C51.0596 8.29128 53.0086 8.4856 54.9992 8.4856C56.9897 8.4856 58.9388 8.29209 60.8293 7.92135C62.7449 7.54655 64.6045 6.98637 66.3892 6.26115C66.4469 6.24407 66.5031 6.21562 66.5527 6.17496C66.7529 6.01154 66.783 5.71641 66.6195 5.51641L66.6186 5.51722C65.2165 3.80173 63.4432 2.4025 61.4209 1.44232C59.4743 0.517087 57.2965 0 55 0C52.7034 0 50.5257 0.517087 48.5783 1.44232Z" fill="black"/>
<path d="M55 0C52.6978 0 50.6397 1.722 49.1724 4.50663C47.7531 7.20101 46.875 10.9117 46.875 14.9996C46.875 19.0883 47.7531 22.799 49.1724 25.4926C50.6397 28.2772 52.6978 29.9992 55 29.9992C57.3022 29.9992 59.3612 28.2772 60.8276 25.4926C62.2469 22.7982 63.125 19.0875 63.125 14.9996C63.125 10.9109 62.2469 7.2002 60.8276 4.50663C59.3612 1.722 57.3022 0 55 0ZM50 4.94241C51.3037 2.46755 53.0737 0.936611 55 0.936611C56.9263 0.936611 58.6963 2.46755 60 4.94241C61.3517 7.50752 62.1875 11.0629 62.1875 15.0004C62.1875 18.9379 61.3517 22.4933 60 25.0584C58.6963 27.5333 56.9263 29.0642 55 29.0642C53.0737 29.0642 51.3037 27.5333 50 25.0584C48.6483 22.4933 47.8125 18.9379 47.8125 15.0004C47.8117 11.0629 48.6483 7.50752 50 4.94241Z" fill="black"/>
<path d="M69.5313 14.5312C69.79 14.5312 70 14.741 70 14.9996C70 15.2581 69.79 15.4679 69.5313 15.4679H40.4688C40.21 15.4679 40 15.2581 40 14.9996C40 14.741 40.21 14.5312 40.4688 14.5312H69.5313Z" fill="black"/>
</g>
<defs>
<clipPath id="clip0_403_317">
<rect width="30" height="30" transform="matrix(-1 0 0 1 70 0)" fill="white"/>
</clipPath>
</defs>
</svg>
